<svg xmlns="http://www.w3.org/2000/svg" xmlns:xlink="http://www.w3.org/1999/xlink" contentStyleType="text/css" height="467px" preserveAspectRatio="none" style="width:228px;height:467px;background:#FFFFFF;" version="1.1" viewBox="0 0 228 467" width="228px" zoomAndPan="magnify"><defs/><g><!--class View--><g id="elem_View"><rect codeLine="1" fill="#F1F1F1" height="48" id="View" rx="2.5" ry="2.5" style="stroke:#181818;stroke-width:0.5;" width="65.5303" x="88.11" y="7"/><ellipse cx="103.11" cy="23" fill="#B4A7E5" rx="11" ry="11" style="stroke:#181818;stroke-width:1.0;"/><path d="M99.0319,18.7656 L99.0319,16.6094 L106.4225,16.6094 L106.4225,18.7656 L103.9538,18.7656 L103.9538,26.8438 L106.4225,26.8438 L106.4225,29 L99.0319,29 L99.0319,26.8438 L101.5006,26.8438 L101.5006,18.7656 L99.0319,18.7656 Z " fill="#000000"/><text fill="#000000" font-family="sans-serif" font-size="14" font-style="italic" lengthAdjust="spacing" textLength="33.5303" x="117.11" y="27.8467">View</text><line style="stroke:#181818;stroke-width:0.5;" x1="89.11" x2="152.6403" y1="39" y2="39"/><line style="stroke:#181818;stroke-width:0.5;" x1="89.11" x2="152.6403" y1="47" y2="47"/></g><!--class Controller--><g id="elem_Controller"><rect codeLine="3" fill="#F1F1F1" height="64.2969" id="Controller" rx="2.5" ry="2.5" style="stroke:#181818;stroke-width:0.5;" width="101.1729" x="70.29" y="115"/><ellipse cx="85.29" cy="131" fill="#B4A7E5" rx="11" ry="11" style="stroke:#181818;stroke-width:1.0;"/><path d="M81.2119,126.7656 L81.2119,124.6094 L88.6025,124.6094 L88.6025,126.7656 L86.1337,126.7656 L86.1337,134.8438 L88.6025,134.8438 L88.6025,137 L81.2119,137 L81.2119,134.8438 L83.6806,134.8438 L83.6806,126.7656 L81.2119,126.7656 Z " fill="#000000"/><text fill="#000000" font-family="sans-serif" font-size="14" font-style="italic" lengthAdjust="spacing" textLength="69.1729" x="99.29" y="135.8467">Controller</text><line style="stroke:#181818;stroke-width:0.5;" x1="71.29" x2="170.4629" y1="147" y2="147"/><line style="stroke:#181818;stroke-width:0.5;" x1="71.29" x2="170.4629" y1="155" y2="155"/><text fill="#000000" font-family="sans-serif" font-size="14" lengthAdjust="spacing" textLength="43.5313" x="76.29" y="171.9951">start()</text></g><!--class Logic--><g id="elem_Logic"><rect codeLine="7" fill="#F1F1F1" height="80.5938" id="Logic" rx="2.5" ry="2.5" style="stroke:#181818;stroke-width:0.5;" width="91.7275" x="75.02" y="239.29"/><ellipse cx="100.3199" cy="255.29" fill="#B4A7E5" rx="11" ry="11" style="stroke:#181818;stroke-width:1.0;"/><path d="M96.2418,251.0556 L96.2418,248.8994 L103.6324,248.8994 L103.6324,251.0556 L101.1637,251.0556 L101.1637,259.1338 L103.6324,259.1338 L103.6324,261.29 L96.2418,261.29 L96.2418,259.1338 L98.7105,259.1338 L98.7105,251.0556 L96.2418,251.0556 Z " fill="#000000"/><text fill="#000000" font-family="sans-serif" font-size="14" font-style="italic" lengthAdjust="spacing" textLength="36.8389" x="116.6088" y="260.1367">Logic</text><line style="stroke:#181818;stroke-width:0.5;" x1="76.02" x2="165.7475" y1="271.29" y2="271.29"/><line style="stroke:#181818;stroke-width:0.5;" x1="76.02" x2="165.7475" y1="279.29" y2="279.29"/><text fill="#000000" font-family="sans-serif" font-size="14" lengthAdjust="spacing" textLength="74.7441" x="81.02" y="296.2851">initGame()</text><text fill="#000000" font-family="sans-serif" font-size="14" lengthAdjust="spacing" textLength="79.7275" x="81.02" y="312.582">nextMove()</text></g><!--class Game--><g id="elem_Game"><rect codeLine="12" fill="#F1F1F1" height="80.5938" id="Game" rx="2.5" ry="2.5" style="stroke:#181818;stroke-width:0.5;" width="103.7588" x="7" y="379.89"/><ellipse cx="35.536" cy="395.89" fill="#B4A7E5" rx="11" ry="11" style="stroke:#181818;stroke-width:1.0;"/><path d="M31.4579,391.6556 L31.4579,389.4994 L38.8485,389.4994 L38.8485,391.6556 L36.3798,391.6556 L36.3798,399.7338 L38.8485,399.7338 L38.8485,401.89 L31.4579,401.89 L31.4579,399.7338 L33.9267,399.7338 L33.9267,391.6556 L31.4579,391.6556 Z " fill="#000000"/><text fill="#000000" font-family="sans-serif" font-size="14" font-style="italic" lengthAdjust="spacing" textLength="41.6787" x="52.544" y="400.7367">Game</text><line style="stroke:#181818;stroke-width:0.5;" x1="8" x2="109.7588" y1="411.89" y2="411.89"/><line style="stroke:#181818;stroke-width:0.5;" x1="8" x2="109.7588" y1="419.89" y2="419.89"/><text fill="#000000" font-family="sans-serif" font-size="14" lengthAdjust="spacing" textLength="91.7588" x="13" y="436.8851">setupGame()</text><text fill="#000000" font-family="sans-serif" font-size="14" lengthAdjust="spacing" textLength="78.9756" x="13" y="453.182">endGame()</text></g><!--class Player--><g id="elem_Player"><rect codeLine="17" fill="#F1F1F1" height="64.2969" id="Player" rx="2.5" ry="2.5" style="stroke:#181818;stroke-width:0.5;" width="75.5654" x="146.1" y="388.03"/><ellipse cx="161.1" cy="404.03" fill="#B4A7E5" rx="11" ry="11" style="stroke:#181818;stroke-width:1.0;"/><path d="M157.0219,399.7956 L157.0219,397.6394 L164.4125,397.6394 L164.4125,399.7956 L161.9438,399.7956 L161.9438,407.8738 L164.4125,407.8738 L164.4125,410.03 L157.0219,410.03 L157.0219,407.8738 L159.4906,407.8738 L159.4906,399.7956 L157.0219,399.7956 Z " fill="#000000"/><text fill="#000000" font-family="sans-serif" font-size="14" font-style="italic" lengthAdjust="spacing" textLength="43.5654" x="175.1" y="408.8767">Player</text><line style="stroke:#181818;stroke-width:0.5;" x1="147.1" x2="220.6654" y1="420.03" y2="420.03"/><line style="stroke:#181818;stroke-width:0.5;" x1="147.1" x2="220.6654" y1="428.03" y2="428.03"/><text fill="#000000" font-family="sans-serif" font-size="14" lengthAdjust="spacing" textLength="50.0254" x="152.1" y="445.0251">move()</text></g><!--reverse link Logic to Game--><g id="link_Logic_Game"><path codeLine="21" d="M98.2112,331.2545 C89.9112,349.8145 84.95,360.9 76.65,379.46 " fill="none" id="Logic-backto-Game" style="stroke:#181818;stroke-width:1.0;"/><polygon fill="none" points="103.11,320.3,97.0091,324.1443,98.2112,331.2545,104.3121,327.4102,103.11,320.3" style="stroke:#181818;stroke-width:1.0;"/></g><!--reverse link Logic to Player--><g id="link_Logic_Player"><path codeLine="22" d="M143.8976,331.2235 C153.6476,352.6635 160.54,367.83 169.62,387.82 " fill="none" id="Logic-backto-Player" style="stroke:#181818;stroke-width:1.0;"/><polygon fill="none" points="138.93,320.3,137.7726,327.4176,143.8976,331.2235,145.055,324.1059,138.93,320.3" style="stroke:#181818;stroke-width:1.0;"/><text fill="#000000" font-family="sans-serif" font-size="13" lengthAdjust="spacing" textLength="23.0356" x="116.9761" y="340.0614">2..*</text></g><!--reverse link Controller to Logic--><g id="link_Controller_Logic"><path codeLine="23" d="M120.88,191.72 C120.88,209.52 120.88,219.91 120.88,238.89 " fill="none" id="Controller-backto-Logic" style="stroke:#181818;stroke-width:1.0;"/><polygon fill="none" points="120.88,179.72,116.88,185.72,120.88,191.72,124.88,185.72,120.88,179.72" style="stroke:#181818;stroke-width:1.0;"/></g><!--link View to Controller--><g id="link_View_Controller"><path codeLine="24" d="M120.88,55.37 C120.88,72.46 120.88,83.83 120.88,102.58 " fill="none" id="View-to-Controller" style="stroke:#181818;stroke-width:1.0;"/><polygon fill="none" points="120.88,114.58,124.88,108.58,120.88,102.58,116.88,108.58,120.88,114.58" style="stroke:#181818;stroke-width:1.0;"/></g><!--SRC=[oymhIIrAIqnELGZBJ2rNgAxbuig42pddvvKKvUVaf1OfL7CfA1IN91QLQ6XoeQZnoK_FJ0PBP-PbbhWdvgO2LIWevALMbFZcbwMYAmSf09kLMb9Q05UTcfS2PQCe3iX9h8JQdGit2s9Xlguks2meLyb8JqzB2ImAqSI5v7QGA5WPgc1fWIxOqm00]--></g></svg>