<svg xmlns="http://www.w3.org/2000/svg" xmlns:xlink="http://www.w3.org/1999/xlink" contentStyleType="text/css" height="538px" preserveAspectRatio="none" style="width:785px;height:538px;background:#FFFFFF;" version="1.1" viewBox="0 0 785 538" width="785px" zoomAndPan="magnify"><defs/><g><!--class Player--><g id="elem_Player"><rect codeLine="1" fill="#F1F1F1" height="170.3438" id="Player" rx="2.5" ry="2.5" style="stroke:#181818;stroke-width:0.5;" width="372.3564" x="7" y="7"/><ellipse cx="167.1455" cy="27.1328" fill="#B4A7E5" rx="11" ry="11" style="stroke:#181818;stroke-width:1.0;"/><path d="M163.0674,22.8984 L163.0674,20.7422 L170.458,20.7422 L170.458,22.8984 L167.9893,22.8984 L167.9893,30.9766 L170.458,30.9766 L170.458,33.1328 L163.0674,33.1328 L163.0674,30.9766 L165.5361,30.9766 L165.5361,22.8984 L163.0674,22.8984 Z " fill="#000000"/><text fill="#000000" font-family="sans-serif" font-size="12" font-style="italic" lengthAdjust="spacing" textLength="39.7148" x="189.5708" y="23.1387">&#171;trait&#187;</text><text fill="#000000" font-family="sans-serif" font-size="14" font-style="italic" lengthAdjust="spacing" textLength="43.5654" x="187.6455" y="38.9639">Player</text><line style="stroke:#181818;stroke-width:0.5;" x1="8" x2="378.3564" y1="47.2656" y2="47.2656"/><text fill="#000000" font-family="sans-serif" font-size="14" lengthAdjust="spacing" textLength="103.0586" x="13" y="64.2607">type CardType</text><text fill="#000000" font-family="sans-serif" font-size="14" lengthAdjust="spacing" textLength="90.6514" x="13" y="80.5576">name: String</text><line style="stroke:#181818;stroke-width:0.5;" x1="8" x2="378.3564" y1="87.8594" y2="87.8594"/><text fill="#000000" font-family="sans-serif" font-size="14" lengthAdjust="spacing" textLength="161.0342" x="13" y="104.8545">cards(): List[CardType]</text><text fill="#000000" font-family="sans-serif" font-size="14" lengthAdjust="spacing" textLength="301.8613" x="13" y="121.1514">draw(drawable: Drawable[CardType]): Unit</text><text fill="#000000" font-family="sans-serif" font-size="14" lengthAdjust="spacing" textLength="360.3564" x="13" y="137.4482">drawCovered(drawable: Drawable[CardType]): Unit</text><text fill="#000000" font-family="sans-serif" font-size="14" lengthAdjust="spacing" textLength="235.7783" x="13" y="153.7451">discard(cardIndex: Int): CardType</text><text fill="#000000" font-family="sans-serif" font-size="14" lengthAdjust="spacing" textLength="295.2031" x="13" y="170.042">isEqualTo(anotherPlayer: Player): Boolean</text></g><!--class CactusPlayer--><g id="elem_CactusPlayer"><rect codeLine="11" fill="#F1F1F1" height="80.5938" id="CactusPlayer" rx="2.5" ry="2.5" style="stroke:#181818;stroke-width:0.5;" width="178.0449" x="104.16" y="290.36"/><ellipse cx="143.8072" cy="306.36" fill="#ADD1B2" rx="11" ry="11" style="stroke:#181818;stroke-width:1.0;"/><path d="M146.7759,312.0006 Q146.1978,312.2975 145.5572,312.4381 Q144.9165,312.5944 144.2134,312.5944 Q141.7134,312.5944 140.3853,310.9538 Q139.0728,309.2975 139.0728,306.1725 Q139.0728,303.0475 140.3853,301.3913 Q141.7134,299.735 144.2134,299.735 Q144.9165,299.735 145.5572,299.8913 Q146.2134,300.0475 146.7759,300.3444 L146.7759,303.0631 Q146.1509,302.485 145.5572,302.2194 Q144.9634,301.9381 144.3384,301.9381 Q142.9947,301.9381 142.3072,303.0163 Q141.6197,304.0788 141.6197,306.1725 Q141.6197,308.2663 142.3072,309.3444 Q142.9947,310.4069 144.3384,310.4069 Q144.9634,310.4069 145.5572,310.1413 Q146.1509,309.86 146.7759,309.2819 L146.7759,312.0006 Z " fill="#000000"/><text fill="#000000" font-family="sans-serif" font-size="14" lengthAdjust="spacing" textLength="91.2734" x="163.2843" y="311.2067">CactusPlayer</text><line style="stroke:#181818;stroke-width:0.5;" x1="105.16" x2="281.2049" y1="322.36" y2="322.36"/><line style="stroke:#181818;stroke-width:0.5;" x1="105.16" x2="281.2049" y1="330.36" y2="330.36"/><text fill="#000000" font-family="sans-serif" font-size="14" lengthAdjust="spacing" textLength="166.0449" x="110.16" y="347.3551">calledCactus(): Boolean</text><text fill="#000000" font-family="sans-serif" font-size="14" lengthAdjust="spacing" textLength="120.3535" x="110.16" y="363.652">callCactus(): Unit</text></g><!--class CactusBot--><g id="elem_CactusBot"><rect codeLine="16" fill="#F1F1F1" height="186.6406" id="CactusBot" rx="2.5" ry="2.5" style="stroke:#181818;stroke-width:0.5;" width="461.3262" x="317.52" y="237.34"/><ellipse cx="508.2495" cy="257.4728" fill="#B4A7E5" rx="11" ry="11" style="stroke:#181818;stroke-width:1.0;"/><path d="M504.1714,253.2384 L504.1714,251.0822 L511.562,251.0822 L511.562,253.2384 L509.0932,253.2384 L509.0932,261.3166 L511.562,261.3166 L511.562,263.4728 L504.1714,263.4728 L504.1714,261.3166 L506.6401,261.3166 L506.6401,253.2384 L504.1714,253.2384 Z " fill="#000000"/><text fill="#000000" font-family="sans-serif" font-size="12" font-style="italic" lengthAdjust="spacing" textLength="39.7148" x="544.5757" y="253.4787">&#171;trait&#187;</text><text fill="#000000" font-family="sans-serif" font-size="14" font-style="italic" lengthAdjust="spacing" textLength="71.3672" x="528.7495" y="269.3039">CactusBot</text><line style="stroke:#181818;stroke-width:0.5;" x1="318.52" x2="777.8462" y1="277.6056" y2="277.6056"/><text fill="#000000" font-family="sans-serif" font-size="14" lengthAdjust="spacing" textLength="203.2051" x="323.52" y="294.6007">knownCards: List[PokerCard]</text><line style="stroke:#181818;stroke-width:0.5;" x1="318.52" x2="777.8462" y1="301.9025" y2="301.9025"/><text fill="#000000" font-family="sans-serif" font-size="14" lengthAdjust="spacing" textLength="141.0732" x="323.52" y="318.8976">chooseDiscard(): Int</text><text fill="#000000" font-family="sans-serif" font-size="14" lengthAdjust="spacing" textLength="312.2656" x="323.52" y="335.1945">chooseDraw(discardPile: PokerPile): Boolean</text><text fill="#000000" font-family="sans-serif" font-size="14" lengthAdjust="spacing" textLength="240.9258" x="323.52" y="351.4914">discard(cardIndex: Int): PokerCard</text><text fill="#000000" font-family="sans-serif" font-size="14" lengthAdjust="spacing" textLength="156.1328" x="323.52" y="367.7882">applyJackEffect(): Unit</text><text fill="#000000" font-family="sans-serif" font-size="14" lengthAdjust="spacing" textLength="420.8408" x="323.52" y="384.0851">chooseDiscardWithMalus(discardPile: PokerPile): Option[Int]</text><text fill="#000000" font-family="sans-serif" font-size="14" lengthAdjust="spacing" textLength="197.0049" x="323.52" y="400.382">shouldCallCactus(): Boolean</text><text fill="#000000" font-family="sans-serif" font-size="14" lengthAdjust="spacing" textLength="449.3262" x="323.52" y="416.6789">choosePlayer(players: List[CactusPlayer]): Option[CactusPlayer]</text></g><!--class CactusBotImpl--><g id="elem_CactusBotImpl"><rect codeLine="27" fill="#F1F1F1" height="48" id="CactusBotImpl" rx="2.5" ry="2.5" style="stroke:#181818;stroke-width:0.5;" width="133.9102" x="303.22" y="483.98"/><ellipse cx="318.22" cy="499.98" fill="#ADD1B2" rx="11" ry="11" style="stroke:#181818;stroke-width:1.0;"/><path d="M321.1888,505.6206 Q320.6106,505.9175 319.97,506.0581 Q319.3294,506.2144 318.6263,506.2144 Q316.1263,506.2144 314.7981,504.5738 Q313.4856,502.9175 313.4856,499.7925 Q313.4856,496.6675 314.7981,495.0113 Q316.1263,493.355 318.6263,493.355 Q319.3294,493.355 319.97,493.5113 Q320.6263,493.6675 321.1888,493.9644 L321.1888,496.6831 Q320.5638,496.105 319.97,495.8394 Q319.3763,495.5581 318.7513,495.5581 Q317.4075,495.5581 316.72,496.6363 Q316.0325,497.6988 316.0325,499.7925 Q316.0325,501.8863 316.72,502.9644 Q317.4075,504.0269 318.7513,504.0269 Q319.3763,504.0269 319.97,503.7613 Q320.5638,503.48 321.1888,502.9019 L321.1888,505.6206 Z " fill="#000000"/><text fill="#000000" font-family="sans-serif" font-size="14" lengthAdjust="spacing" textLength="101.9102" x="332.22" y="504.8267">CactusBotImpl</text><line style="stroke:#181818;stroke-width:0.5;" x1="304.22" x2="436.1302" y1="515.98" y2="515.98"/><line style="stroke:#181818;stroke-width:0.5;" x1="304.22" x2="436.1302" y1="523.98" y2="523.98"/></g><!--reverse link CactusBot to CactusBotImpl--><g id="link_CactusBot_CactusBotImpl"><path codeLine="31" d="M441.1478,437.0829 C418.7978,459.1029 409.71,468.05 393.9,483.61 " fill="none" id="CactusBot-backto-CactusBotImpl" style="stroke:#181818;stroke-width:1.0;"/><polygon fill="none" points="453.97,424.45,436.9368,432.8088,445.3587,441.357,453.97,424.45" style="stroke:#181818;stroke-width:1.0;"/></g><!--reverse link CactusPlayer to CactusBotImpl--><g id="link_CactusPlayer_CactusBotImpl"><path codeLine="32" d="M246.1301,384.1055 C281.0201,418.6555 317.56,454.86 346.48,483.5 " fill="none" id="CactusPlayer-backto-CactusBotImpl" style="stroke:#181818;stroke-width:1.0;"/><polygon fill="none" points="233.34,371.44,241.9083,388.3688,250.3519,379.8421,233.34,371.44" style="stroke:#181818;stroke-width:1.0;"/></g><!--reverse link Player to CactusPlayer--><g id="link_Player_CactusPlayer"><path codeLine="33" d="M193.18,195.55 C193.18,233.88 193.18,259.4 193.18,290.04 " fill="none" id="Player-backto-CactusPlayer" style="stroke:#181818;stroke-width:1.0;"/><polygon fill="none" points="193.18,177.55,187.18,195.55,199.18,195.55,193.18,177.55" style="stroke:#181818;stroke-width:1.0;"/></g><!--SRC=[ZPBFJiCm3CRlVOeSkyDUe48xxCzX2CGaXZXCEvZKez6of2GUOngyEqvIrdOmYKkQ-BDZVxzK6KAt0ObYeU68JjpSa0D5ev4uPKBGiKOn0LSkUSDd0piin2CvPLxvA5dn-Q0GTyhJwYTlpKhfu9271LuqLqoRNPl3HKz6KPCwiU_eiFnlXVAXSnwMkIdnen1pGwnt9bL-zhO7lRGv64iLkkIlQ7noyjXQZM2ohooJ6hpdQabxtt0uHNjQOvd2UQSYAMqyZiNNg3FCf8qjNV3S6dimOKhVC5lOBReG2D1aPQt7QUDk45sruKWqQGiL4CNQiEsDTXNEkHKdGLthuot8xMopGKbvoxOtmxEYwXuqkxpQ-A4cPSsAMmG7lh9xpSIwT3hKujq9S5x7Zp__EotxTNjjBtpvKentlgjr11kq3lJFuR2VbFKUzm_zjv8Ytm00]--></g></svg>