<svg xmlns="http://www.w3.org/2000/svg" xmlns:xlink="http://www.w3.org/1999/xlink" contentStyleType="text/css" height="865px" preserveAspectRatio="none" style="width:939px;height:865px;background:#FFFFFF;" version="1.1" viewBox="0 0 939 865" width="939px" zoomAndPan="magnify"><defs/><g><!--class PokerSuit--><g id="elem_PokerSuit"><rect codeLine="1" fill="#F1F1F1" height="113.1875" id="PokerSuit" rx="2.5" ry="2.5" style="stroke:#181818;stroke-width:0.5;" width="98.623" x="210.38" y="629.76"/><ellipse cx="225.38" cy="645.76" fill="#EB937F" rx="11" ry="11" style="stroke:#181818;stroke-width:1.0;"/><path d="M229.4894,651.76 L221.7706,651.76 L221.7706,639.3694 L229.4894,639.3694 L229.4894,641.5256 L224.2238,641.5256 L224.2238,644.1975 L228.9894,644.1975 L228.9894,646.3538 L224.2238,646.3538 L224.2238,649.6038 L229.4894,649.6038 L229.4894,651.76 Z " fill="#000000"/><text fill="#000000" font-family="sans-serif" font-size="14" lengthAdjust="spacing" textLength="66.623" x="239.38" y="650.6067">PokerSuit</text><line style="stroke:#181818;stroke-width:0.5;" x1="211.38" x2="308.003" y1="661.76" y2="661.76"/><text fill="#000000" font-family="sans-serif" font-size="14" lengthAdjust="spacing" textLength="51.1465" x="216.38" y="678.7551">Spades</text><text fill="#000000" font-family="sans-serif" font-size="14" lengthAdjust="spacing" textLength="70.5059" x="216.38" y="695.052">Diamonds</text><text fill="#000000" font-family="sans-serif" font-size="14" lengthAdjust="spacing" textLength="46.2588" x="216.38" y="711.3489">Hearts</text><text fill="#000000" font-family="sans-serif" font-size="14" lengthAdjust="spacing" textLength="38.7188" x="216.38" y="727.6457">Clubs</text><line style="stroke:#181818;stroke-width:0.5;" x1="211.38" x2="308.003" y1="734.9475" y2="734.9475"/></g><!--class Card--><g id="elem_Card"><rect codeLine="8" fill="#F1F1F1" height="88.8594" id="Card" rx="2.5" ry="2.5" style="stroke:#181818;stroke-width:0.5;" width="95.1699" x="212.11" y="480.9"/><ellipse cx="227.11" cy="501.0328" fill="#B4A7E5" rx="11" ry="11" style="stroke:#181818;stroke-width:1.0;"/><path d="M223.0319,496.7984 L223.0319,494.6422 L230.4225,494.6422 L230.4225,496.7984 L227.9538,496.7984 L227.9538,504.8766 L230.4225,504.8766 L230.4225,507.0328 L223.0319,507.0328 L223.0319,504.8766 L225.5006,504.8766 L225.5006,496.7984 L223.0319,496.7984 Z " fill="#000000"/><text fill="#000000" font-family="sans-serif" font-size="12" font-style="italic" lengthAdjust="spacing" textLength="39.7148" x="239.11" y="497.0387">&#171;trait&#187;</text><text fill="#000000" font-family="sans-serif" font-size="14" font-style="italic" lengthAdjust="spacing" textLength="32.9971" x="242.4689" y="512.8639">Card</text><rect fill="#FFFFFF" height="15.9688" style="stroke:#181818;stroke-width:1.0;stroke-dasharray:2.0,2.0;" width="25.4551" x="284.8248" y="477.9"/><text fill="#000000" font-family="sans-serif" font-size="12" font-style="italic" lengthAdjust="spacing" textLength="23.4551" x="285.8248" y="490.0387">V, S</text><line style="stroke:#181818;stroke-width:0.5;" x1="213.11" x2="306.2799" y1="521.1656" y2="521.1656"/><text fill="#000000" font-family="sans-serif" font-size="14" lengthAdjust="spacing" textLength="56.9844" x="218.11" y="538.1607">value: V</text><text fill="#000000" font-family="sans-serif" font-size="14" lengthAdjust="spacing" textLength="43.5996" x="218.11" y="554.4576">suit: S</text><line style="stroke:#181818;stroke-width:0.5;" x1="213.11" x2="306.2799" y1="561.7594" y2="561.7594"/></g><!--class GenericCard--><g id="elem_GenericCard"><rect codeLine="13" fill="#F1F1F1" height="48" id="GenericCard" rx="2.5" ry="2.5" style="stroke:#181818;stroke-width:0.5;" width="146.7432" x="28.32" y="662.36"/><ellipse cx="43.32" cy="678.36" fill="#ADD1B2" rx="11" ry="11" style="stroke:#181818;stroke-width:1.0;"/><path d="M46.2888,684.0006 Q45.7106,684.2975 45.07,684.4381 Q44.4294,684.5944 43.7263,684.5944 Q41.2263,684.5944 39.8981,682.9538 Q38.5856,681.2975 38.5856,678.1725 Q38.5856,675.0475 39.8981,673.3913 Q41.2263,671.735 43.7263,671.735 Q44.4294,671.735 45.07,671.8913 Q45.7263,672.0475 46.2888,672.3444 L46.2888,675.0631 Q45.6638,674.485 45.07,674.2194 Q44.4763,673.9381 43.8513,673.9381 Q42.5075,673.9381 41.82,675.0163 Q41.1325,676.0788 41.1325,678.1725 Q41.1325,680.2663 41.82,681.3444 Q42.5075,682.4069 43.8513,682.4069 Q44.4763,682.4069 45.07,682.1413 Q45.6638,681.86 46.2888,681.2819 L46.2888,684.0006 Z " fill="#000000"/><text fill="#000000" font-family="sans-serif" font-size="14" lengthAdjust="spacing" textLength="87.2881" x="57.32" y="683.2067">GenericCard</text><rect fill="#FFFFFF" height="15.9688" style="stroke:#181818;stroke-width:1.0;stroke-dasharray:2.0,2.0;" width="25.4551" x="152.6081" y="659.36"/><text fill="#000000" font-family="sans-serif" font-size="12" font-style="italic" lengthAdjust="spacing" textLength="23.4551" x="153.6081" y="671.4987">V, S</text><line style="stroke:#181818;stroke-width:0.5;" x1="29.32" x2="174.0632" y1="694.36" y2="694.36"/><line style="stroke:#181818;stroke-width:0.5;" x1="29.32" x2="174.0632" y1="702.36" y2="702.36"/></g><!--class PokerCard--><g id="elem_PokerCard"><rect codeLine="15" fill="#F1F1F1" height="48" id="PokerCard" rx="2.5" ry="2.5" style="stroke:#181818;stroke-width:0.5;" width="104.4814" x="344.45" y="662.36"/><ellipse cx="359.45" cy="678.36" fill="#ADD1B2" rx="11" ry="11" style="stroke:#181818;stroke-width:1.0;"/><path d="M362.4188,684.0006 Q361.8406,684.2975 361.2,684.4381 Q360.5594,684.5944 359.8563,684.5944 Q357.3563,684.5944 356.0281,682.9538 Q354.7156,681.2975 354.7156,678.1725 Q354.7156,675.0475 356.0281,673.3913 Q357.3563,671.735 359.8563,671.735 Q360.5594,671.735 361.2,671.8913 Q361.8563,672.0475 362.4188,672.3444 L362.4188,675.0631 Q361.7938,674.485 361.2,674.2194 Q360.6063,673.9381 359.9813,673.9381 Q358.6375,673.9381 357.95,675.0163 Q357.2625,676.0788 357.2625,678.1725 Q357.2625,680.2663 357.95,681.3444 Q358.6375,682.4069 359.9813,682.4069 Q360.6063,682.4069 361.2,682.1413 Q361.7938,681.86 362.4188,681.2819 L362.4188,684.0006 Z " fill="#000000"/><text fill="#000000" font-family="sans-serif" font-size="14" lengthAdjust="spacing" textLength="72.4814" x="373.45" y="683.2067">PokerCard</text><line style="stroke:#181818;stroke-width:0.5;" x1="345.45" x2="447.9314" y1="694.36" y2="694.36"/><line style="stroke:#181818;stroke-width:0.5;" x1="345.45" x2="447.9314" y1="702.36" y2="702.36"/></g><g id="elem_GMN8"><path d="M312.02,802.95 L312.02,858.3484 A0,0 0 0 0 312.02,858.3484 L481.3647,858.3484 A0,0 0 0 0 481.3647,858.3484 L481.3647,812.95 L471.3647,802.95 L400.69,802.95 L396.69,710.85 L392.69,802.95 L312.02,802.95 A0,0 0 0 0 312.02,802.95 " fill="#FEFFDD" style="stroke:#181818;stroke-width:0.5;"/><path d="M471.3647,802.95 L471.3647,812.95 L481.3647,812.95 L471.3647,802.95 " fill="#FEFFDD" style="stroke:#181818;stroke-width:0.5;"/><text fill="#000000" font-family="sans-serif" font-size="13" lengthAdjust="spacing" textLength="148.3447" x="318.02" y="820.0169">PokerCard implements</text><text fill="#000000" font-family="sans-serif" font-size="13" lengthAdjust="spacing" textLength="112.2456" x="318.02" y="835.1497">Card with Int and</text><text fill="#000000" font-family="sans-serif" font-size="13" lengthAdjust="spacing" textLength="61.8643" x="318.02" y="850.2825">PokerSuit</text></g><!--class Drawable--><g id="elem_Drawable"><rect codeLine="24" fill="#F1F1F1" height="72.5625" id="Drawable" rx="2.5" ry="2.5" style="stroke:#181818;stroke-width:0.5;" width="134.1855" x="550.6" y="10"/><ellipse cx="576.0726" cy="30.1328" fill="#B4A7E5" rx="11" ry="11" style="stroke:#181818;stroke-width:1.0;"/><path d="M571.9945,25.8984 L571.9945,23.7422 L579.3851,23.7422 L579.3851,25.8984 L576.9164,25.8984 L576.9164,33.9766 L579.3851,33.9766 L579.3851,36.1328 L571.9945,36.1328 L571.9945,33.9766 L574.4632,33.9766 L574.4632,25.8984 L571.9945,25.8984 Z " fill="#000000"/><text fill="#000000" font-family="sans-serif" font-size="12" font-style="italic" lengthAdjust="spacing" textLength="39.7148" x="605.8095" y="26.1387">&#171;trait&#187;</text><text fill="#000000" font-family="sans-serif" font-size="14" font-style="italic" lengthAdjust="spacing" textLength="66.5342" x="592.3999" y="41.9639">Drawable</text><rect fill="#FFFFFF" height="15.9688" style="stroke:#181818;stroke-width:1.0;stroke-dasharray:2.0,2.0;" width="10.3789" x="677.4066" y="7"/><text fill="#000000" font-family="sans-serif" font-size="12" font-style="italic" lengthAdjust="spacing" textLength="8.3789" x="678.4066" y="19.1387">C</text><line style="stroke:#181818;stroke-width:0.5;" x1="551.6" x2="683.7855" y1="50.2656" y2="50.2656"/><line style="stroke:#181818;stroke-width:0.5;" x1="551.6" x2="683.7855" y1="58.2656" y2="58.2656"/><text fill="#000000" font-family="sans-serif" font-size="14" lengthAdjust="spacing" textLength="122.1855" x="556.6" y="75.2607">draw(): Option[C]</text></g><!--class Deck--><g id="elem_Deck"><rect codeLine="28" fill="#F1F1F1" height="137.75" id="Deck" rx="2.5" ry="2.5" style="stroke:#181818;stroke-width:0.5;" width="313.5469" x="313.92" y="142.56"/><ellipse cx="442.3966" cy="162.6928" fill="#B4A7E5" rx="11" ry="11" style="stroke:#181818;stroke-width:1.0;"/><path d="M438.3184,158.4584 L438.3184,156.3022 L445.7091,156.3022 L445.7091,158.4584 L443.2403,158.4584 L443.2403,166.5366 L445.7091,166.5366 L445.7091,168.6928 L438.3184,168.6928 L438.3184,166.5366 L440.7872,166.5366 L440.7872,158.4584 L438.3184,158.4584 Z " fill="#000000"/><text fill="#000000" font-family="sans-serif" font-size="12" font-style="italic" lengthAdjust="spacing" textLength="39.7148" x="460.8966" y="158.6987">&#171;trait&#187;</text><text fill="#000000" font-family="sans-serif" font-size="14" font-style="italic" lengthAdjust="spacing" textLength="35.1982" x="463.1549" y="174.5239">Deck</text><rect fill="#FFFFFF" height="15.9688" style="stroke:#181818;stroke-width:1.0;stroke-dasharray:2.0,2.0;" width="10.3789" x="620.088" y="139.56"/><text fill="#000000" font-family="sans-serif" font-size="12" font-style="italic" lengthAdjust="spacing" textLength="8.3789" x="621.088" y="151.6987">C</text><line style="stroke:#181818;stroke-width:0.5;" x1="314.92" x2="626.4669" y1="182.8256" y2="182.8256"/><line style="stroke:#181818;stroke-width:0.5;" x1="314.92" x2="626.4669" y1="190.8256" y2="190.8256"/><text fill="#000000" font-family="sans-serif" font-size="14" lengthAdjust="spacing" textLength="103.4756" x="319.92" y="207.8207">cards(): List[C]</text><text fill="#000000" font-family="sans-serif" font-size="14" lengthAdjust="spacing" textLength="65.7275" x="319.92" y="224.1176">size(): Int</text><text fill="#000000" font-family="sans-serif" font-size="14" lengthAdjust="spacing" textLength="123.3887" x="319.92" y="240.4145">shuffle(): Deck[C]</text><text fill="#000000" font-family="sans-serif" font-size="14" lengthAdjust="spacing" textLength="111.7539" x="319.92" y="256.7114">reset(): Deck[C]</text><text fill="#000000" font-family="sans-serif" font-size="14" lengthAdjust="spacing" textLength="301.5469" x="319.92" y="273.0082">resetWithPile(pile: DiscardPile[C]): Deck[C]</text></g><!--class AbstractDeck--><g id="elem_AbstractDeck"><rect codeLine="36" fill="#F1F1F1" height="80.5938" id="AbstractDeck" rx="2.5" ry="2.5" style="stroke:#181818;stroke-width:0.5;" width="220.332" x="360.53" y="340.31"/><ellipse cx="413.2732" cy="356.31" fill="#A9DCDF" rx="11" ry="11" style="stroke:#181818;stroke-width:1.0;"/><path d="M413.3825,351.6538 L412.2263,356.7319 L414.5544,356.7319 L413.3825,351.6538 Z M411.8982,349.4194 L414.8825,349.4194 L418.2419,361.81 L415.7888,361.81 L415.0232,358.7475 L411.7419,358.7475 L410.9919,361.81 L408.5544,361.81 L411.8982,349.4194 Z " fill="#000000"/><text fill="#000000" font-family="sans-serif" font-size="14" font-style="italic" lengthAdjust="spacing" textLength="93.9668" x="433.7732" y="361.1567">AbstractDeck</text><rect fill="#FFFFFF" height="15.9688" style="stroke:#181818;stroke-width:1.0;stroke-dasharray:2.0,2.0;" width="10.3789" x="573.4831" y="337.31"/><text fill="#000000" font-family="sans-serif" font-size="12" font-style="italic" lengthAdjust="spacing" textLength="8.3789" x="574.4831" y="349.4487">C</text><line style="stroke:#181818;stroke-width:0.5;" x1="361.53" x2="579.862" y1="372.31" y2="372.31"/><line style="stroke:#181818;stroke-width:0.5;" x1="361.53" x2="579.862" y1="380.31" y2="380.31"/><polygon fill="#FFFF44" points="371.53,388.9584,375.53,392.9584,371.53,396.9584,367.53,392.9584" style="stroke:#B38D22;stroke-width:1.0;"/><text fill="#000000" font-family="sans-serif" font-size="14" lengthAdjust="spacing" textLength="155.9346" x="380.53" y="397.3051">createDeck(): Deck[C]</text><polygon fill="#FFFF44" points="371.53,405.2553,375.53,409.2553,371.53,413.2553,367.53,409.2553" style="stroke:#B38D22;stroke-width:1.0;"/><text fill="#000000" font-family="sans-serif" font-size="14" lengthAdjust="spacing" textLength="194.332" x="380.53" y="413.602">discardPile(): DiscardPile[C]</text></g><!--class GenericDeck--><g id="elem_GenericDeck"><rect codeLine="41" fill="#F1F1F1" height="48" id="GenericDeck" rx="2.5" ry="2.5" style="stroke:#181818;stroke-width:0.5;" width="121.4893" x="483.95" y="501.33"/><ellipse cx="498.95" cy="517.33" fill="#ADD1B2" rx="11" ry="11" style="stroke:#181818;stroke-width:1.0;"/><path d="M501.9188,522.9706 Q501.3406,523.2675 500.7,523.4081 Q500.0594,523.5644 499.3563,523.5644 Q496.8563,523.5644 495.5281,521.9238 Q494.2156,520.2675 494.2156,517.1425 Q494.2156,514.0175 495.5281,512.3613 Q496.8563,510.705 499.3563,510.705 Q500.0594,510.705 500.7,510.8613 Q501.3563,511.0175 501.9188,511.3144 L501.9188,514.0331 Q501.2938,513.455 500.7,513.1894 Q500.1063,512.9081 499.4813,512.9081 Q498.1375,512.9081 497.45,513.9863 Q496.7625,515.0488 496.7625,517.1425 Q496.7625,519.2363 497.45,520.3144 Q498.1375,521.3769 499.4813,521.3769 Q500.1063,521.3769 500.7,521.1113 Q501.2938,520.83 501.9188,520.2519 L501.9188,522.9706 Z " fill="#000000"/><text fill="#000000" font-family="sans-serif" font-size="14" lengthAdjust="spacing" textLength="89.4893" x="512.95" y="522.1767">GenericDeck</text><line style="stroke:#181818;stroke-width:0.5;" x1="484.95" x2="604.4393" y1="533.33" y2="533.33"/><line style="stroke:#181818;stroke-width:0.5;" x1="484.95" x2="604.4393" y1="541.33" y2="541.33"/></g><!--class PokerDeck--><g id="elem_PokerDeck"><rect codeLine="42" fill="#F1F1F1" height="48" id="PokerDeck" rx="2.5" ry="2.5" style="stroke:#181818;stroke-width:0.5;" width="106.6826" x="342.35" y="501.33"/><ellipse cx="357.35" cy="517.33" fill="#ADD1B2" rx="11" ry="11" style="stroke:#181818;stroke-width:1.0;"/><path d="M360.3188,522.9706 Q359.7406,523.2675 359.1,523.4081 Q358.4594,523.5644 357.7563,523.5644 Q355.2563,523.5644 353.9281,521.9238 Q352.6156,520.2675 352.6156,517.1425 Q352.6156,514.0175 353.9281,512.3613 Q355.2563,510.705 357.7563,510.705 Q358.4594,510.705 359.1,510.8613 Q359.7563,511.0175 360.3188,511.3144 L360.3188,514.0331 Q359.6938,513.455 359.1,513.1894 Q358.5063,512.9081 357.8813,512.9081 Q356.5375,512.9081 355.85,513.9863 Q355.1625,515.0488 355.1625,517.1425 Q355.1625,519.2363 355.85,520.3144 Q356.5375,521.3769 357.8813,521.3769 Q358.5063,521.3769 359.1,521.1113 Q359.6938,520.83 360.3188,520.2519 L360.3188,522.9706 Z " fill="#000000"/><text fill="#000000" font-family="sans-serif" font-size="14" lengthAdjust="spacing" textLength="74.6826" x="371.35" y="522.1767">PokerDeck</text><line style="stroke:#181818;stroke-width:0.5;" x1="343.35" x2="448.0326" y1="533.33" y2="533.33"/><line style="stroke:#181818;stroke-width:0.5;" x1="343.35" x2="448.0326" y1="541.33" y2="541.33"/></g><g id="elem_GMN20"><path d="M6,505.2 L6,545.4656 L177.3887,545.4656 L177.3887,515.2 L167.3887,505.2 L6,505.2 " fill="#FEFFDD" style="stroke:#181818;stroke-width:0.5;"/><path d="M167.3887,505.2 L167.3887,515.2 L177.3887,515.2 L167.3887,505.2 " fill="#FEFFDD" style="stroke:#181818;stroke-width:1.0;"/><text fill="#000000" font-family="sans-serif" font-size="13" lengthAdjust="spacing" textLength="150.3887" x="12" y="522.2669">PokerDeck implements</text><text fill="#000000" font-family="sans-serif" font-size="13" lengthAdjust="spacing" textLength="135.8335" x="12" y="537.3997">Deck with PokerCard</text></g><!--class DiscardPile--><g id="elem_DiscardPile"><rect codeLine="49" fill="#F1F1F1" height="121.4531" id="DiscardPile" rx="2.5" ry="2.5" style="stroke:#181818;stroke-width:0.5;" width="203.6182" x="662.89" y="150.71"/><ellipse cx="715.4007" cy="170.8428" fill="#B4A7E5" rx="11" ry="11" style="stroke:#181818;stroke-width:1.0;"/><path d="M711.3226,166.6084 L711.3226,164.4522 L718.7132,164.4522 L718.7132,166.6084 L716.2445,166.6084 L716.2445,174.6866 L718.7132,174.6866 L718.7132,176.8428 L711.3226,176.8428 L711.3226,174.6866 L713.7914,174.6866 L713.7914,166.6084 L711.3226,166.6084 Z " fill="#000000"/><text fill="#000000" font-family="sans-serif" font-size="12" font-style="italic" lengthAdjust="spacing" textLength="39.7148" x="754.9022" y="166.8487">&#171;trait&#187;</text><text fill="#000000" font-family="sans-serif" font-size="14" font-style="italic" lengthAdjust="spacing" textLength="77.7178" x="735.9007" y="182.6739">DiscardPile</text><rect fill="#FFFFFF" height="15.9688" style="stroke:#181818;stroke-width:1.0;stroke-dasharray:2.0,2.0;" width="10.3789" x="859.1293" y="147.71"/><text fill="#000000" font-family="sans-serif" font-size="12" font-style="italic" lengthAdjust="spacing" textLength="8.3789" x="860.1293" y="159.8487">C</text><line style="stroke:#181818;stroke-width:0.5;" x1="663.89" x2="865.5082" y1="190.9756" y2="190.9756"/><line style="stroke:#181818;stroke-width:0.5;" x1="663.89" x2="865.5082" y1="198.9756" y2="198.9756"/><text fill="#000000" font-family="sans-serif" font-size="14" lengthAdjust="spacing" textLength="103.4756" x="668.89" y="215.9707">cards(): List[C]</text><text fill="#000000" font-family="sans-serif" font-size="14" lengthAdjust="spacing" textLength="65.7275" x="668.89" y="232.2676">size(): Int</text><text fill="#000000" font-family="sans-serif" font-size="14" lengthAdjust="spacing" textLength="191.6182" x="668.89" y="248.5645">put(card: C): DiscardPile[C]</text><text fill="#000000" font-family="sans-serif" font-size="14" lengthAdjust="spacing" textLength="163.4199" x="668.89" y="264.8614">empty(): DiscardPile[C]</text></g><!--class AbstractDiscardPile--><g id="elem_AbstractDiscardPile"><rect codeLine="56" fill="#F1F1F1" height="48" id="AbstractDiscardPile" rx="2.5" ry="2.5" style="stroke:#181818;stroke-width:0.5;" width="168.4863" x="680.45" y="356.61"/><ellipse cx="695.45" cy="372.61" fill="#A9DCDF" rx="11" ry="11" style="stroke:#181818;stroke-width:1.0;"/><path d="M695.5594,367.9538 L694.4031,373.0319 L696.7313,373.0319 L695.5594,367.9538 Z M694.075,365.7194 L697.0594,365.7194 L700.4188,378.11 L697.9656,378.11 L697.2,375.0475 L693.9188,375.0475 L693.1688,378.11 L690.7313,378.11 L694.075,365.7194 Z " fill="#000000"/><text fill="#000000" font-family="sans-serif" font-size="14" font-style="italic" lengthAdjust="spacing" textLength="136.4863" x="709.45" y="377.4567">AbstractDiscardPile</text><line style="stroke:#181818;stroke-width:0.5;" x1="681.45" x2="847.9363" y1="388.61" y2="388.61"/><line style="stroke:#181818;stroke-width:0.5;" x1="681.45" x2="847.9363" y1="396.61" y2="396.61"/></g><!--class GenericPile--><g id="elem_GenericPile"><rect codeLine="58" fill="#F1F1F1" height="48" id="GenericPile" rx="2.5" ry="2.5" style="stroke:#181818;stroke-width:0.5;" width="111.126" x="640.13" y="501.33"/><ellipse cx="655.13" cy="517.33" fill="#ADD1B2" rx="11" ry="11" style="stroke:#181818;stroke-width:1.0;"/><path d="M658.0988,522.9706 Q657.5206,523.2675 656.88,523.4081 Q656.2394,523.5644 655.5363,523.5644 Q653.0363,523.5644 651.7081,521.9238 Q650.3956,520.2675 650.3956,517.1425 Q650.3956,514.0175 651.7081,512.3613 Q653.0363,510.705 655.5363,510.705 Q656.2394,510.705 656.88,510.8613 Q657.5363,511.0175 658.0988,511.3144 L658.0988,514.0331 Q657.4738,513.455 656.88,513.1894 Q656.2863,512.9081 655.6613,512.9081 Q654.3175,512.9081 653.63,513.9863 Q652.9425,515.0488 652.9425,517.1425 Q652.9425,519.2363 653.63,520.3144 Q654.3175,521.3769 655.6613,521.3769 Q656.2863,521.3769 656.88,521.1113 Q657.4738,520.83 658.0988,520.2519 L658.0988,522.9706 Z " fill="#000000"/><text fill="#000000" font-family="sans-serif" font-size="14" lengthAdjust="spacing" textLength="79.126" x="669.13" y="522.1767">GenericPile</text><line style="stroke:#181818;stroke-width:0.5;" x1="641.13" x2="750.256" y1="533.33" y2="533.33"/><line style="stroke:#181818;stroke-width:0.5;" x1="641.13" x2="750.256" y1="541.33" y2="541.33"/></g><!--class PokerPile--><g id="elem_PokerPile"><rect codeLine="59" fill="#F1F1F1" height="48" id="PokerPile" rx="2.5" ry="2.5" style="stroke:#181818;stroke-width:0.5;" width="96.3193" x="786.53" y="501.33"/><ellipse cx="801.53" cy="517.33" fill="#ADD1B2" rx="11" ry="11" style="stroke:#181818;stroke-width:1.0;"/><path d="M804.4988,522.9706 Q803.9206,523.2675 803.28,523.4081 Q802.6394,523.5644 801.9363,523.5644 Q799.4363,523.5644 798.1081,521.9238 Q796.7956,520.2675 796.7956,517.1425 Q796.7956,514.0175 798.1081,512.3613 Q799.4363,510.705 801.9363,510.705 Q802.6394,510.705 803.28,510.8613 Q803.9363,511.0175 804.4988,511.3144 L804.4988,514.0331 Q803.8738,513.455 803.28,513.1894 Q802.6863,512.9081 802.0613,512.9081 Q800.7175,512.9081 800.03,513.9863 Q799.3425,515.0488 799.3425,517.1425 Q799.3425,519.2363 800.03,520.3144 Q800.7175,521.3769 802.0613,521.3769 Q802.6863,521.3769 803.28,521.1113 Q803.8738,520.83 804.4988,520.2519 L804.4988,522.9706 Z " fill="#000000"/><text fill="#000000" font-family="sans-serif" font-size="14" lengthAdjust="spacing" textLength="64.3193" x="815.53" y="522.1767">PokerPile</text><line style="stroke:#181818;stroke-width:0.5;" x1="787.53" x2="881.8493" y1="533.33" y2="533.33"/><line style="stroke:#181818;stroke-width:0.5;" x1="787.53" x2="881.8493" y1="541.33" y2="541.33"/></g><g id="elem_GMN31"><path d="M736.54,666.22 L736.54,706.4856 A0,0 0 0 0 736.54,706.4856 L932.8559,706.4856 A0,0 0 0 0 932.8559,706.4856 L932.8559,676.22 L922.8559,666.22 L838.69,666.22 L834.69,549.8 L830.69,666.22 L736.54,666.22 A0,0 0 0 0 736.54,666.22 " fill="#FEFFDD" style="stroke:#181818;stroke-width:0.5;"/><path d="M922.8559,666.22 L922.8559,676.22 L932.8559,676.22 L922.8559,666.22 " fill="#FEFFDD" style="stroke:#181818;stroke-width:0.5;"/><text fill="#000000" font-family="sans-serif" font-size="13" lengthAdjust="spacing" textLength="136.6333" x="742.54" y="683.2869">PokerPileimplements</text><text fill="#000000" font-family="sans-serif" font-size="13" lengthAdjust="spacing" textLength="175.3159" x="742.54" y="698.4197">DiscardPile with PokerCard</text></g><!--reverse link Card to GenericCard--><g id="link_Card_GenericCard"><path d="M203.415,582.9807 C173.825,612.7707 148.55,638.2 124.67,662.23 " fill="none" id="Card-backto-GenericCard" style="stroke:#181818;stroke-width:1.0;"/><polygon fill="none" points="216.1,570.21,199.1581,578.7524,207.6719,587.209,216.1,570.21" style="stroke:#181818;stroke-width:1.0;"/></g><!--reverse link Card to PokerCard--><g id="link_Card_PokerCard"><path d="M309.2374,583.8481 C334.8974,613.6381 356.06,638.2 376.77,662.23 " fill="none" id="Card-backto-PokerCard" style="stroke:#181818;stroke-width:1.0;"/><polygon fill="none" points="297.49,570.21,304.6913,587.7639,313.7834,579.9323,297.49,570.21" style="stroke:#181818;stroke-width:1.0;"/></g><!--reverse link Drawable to Deck--><g id="link_Drawable_Deck"><path d="M573.7489,96.0505 C558.0389,113.4805 550.61,121.74 532.16,142.21 " fill="none" id="Drawable-backto-Deck" style="stroke:#181818;stroke-width:1.0;"/><polygon fill="none" points="585.8,82.68,569.2921,92.0335,578.2057,100.0676,585.8,82.68" style="stroke:#181818;stroke-width:1.0;"/></g><!--reverse link Deck to AbstractDeck--><g id="link_Deck_AbstractDeck"><path d="M470.69,298.43 C470.69,318.68 470.69,322.19 470.69,339.99 " fill="none" id="Deck-backto-AbstractDeck" style="stroke:#181818;stroke-width:1.0;"/><polygon fill="none" points="470.69,280.43,464.69,298.43,476.69,298.43,470.69,280.43" style="stroke:#181818;stroke-width:1.0;"/></g><!--reverse link AbstractDeck to GenericDeck--><g id="link_AbstractDeck_GenericDeck"><path d="M499.5941,437.3504 C512.8441,462.9104 521.34,479.29 532.51,500.84 " fill="none" id="AbstractDeck-backto-GenericDeck" style="stroke:#181818;stroke-width:1.0;"/><polygon fill="none" points="491.31,421.37,494.2673,440.1118,504.9209,434.5891,491.31,421.37" style="stroke:#181818;stroke-width:1.0;"/></g><!--reverse link AbstractDeck to PokerDeck--><g id="link_AbstractDeck_PokerDeck"><path d="M441.4276,437.3043 C427.9976,462.8643 419.36,479.29 408.04,500.84 " fill="none" id="AbstractDeck-backto-PokerDeck" style="stroke:#181818;stroke-width:1.0;"/><polygon fill="none" points="449.8,421.37,436.1162,434.5135,446.7391,440.0951,449.8,421.37" style="stroke:#181818;stroke-width:1.0;"/></g><!--link GMN20 to PokerDeck--><g id="link_GMN20_PokerDeck"><path d="M115.6,504.93 C138.62,486.73 175.29,461.38 212.19,450.9 C252.81,439.37 267.53,436.44 307.19,450.9 C334.54,460.88 359.3,483.43 375.63,501.11 " fill="none" id="GMN20-PokerDeck" style="stroke:#181818;stroke-width:1.0;stroke-dasharray:7.0,7.0;"/></g><!--reverse link Drawable to DiscardPile--><g id="link_Drawable_DiscardPile"><path d="M661.6381,96.0532 C679.4581,115.8332 690.09,127.63 710.6,150.39 " fill="none" id="Drawable-backto-DiscardPile" style="stroke:#181818;stroke-width:1.0;"/><polygon fill="none" points="649.59,82.68,657.1803,100.0693,666.0958,92.0372,649.59,82.68" style="stroke:#181818;stroke-width:1.0;"/></g><!--reverse link DiscardPile to AbstractDiscardPile--><g id="link_DiscardPile_AbstractDiscardPile"><path d="M764.69,290.32 C764.69,319.36 764.69,334.57 764.69,356.25 " fill="none" id="DiscardPile-backto-AbstractDiscardPile" style="stroke:#181818;stroke-width:1.0;"/><polygon fill="none" points="764.69,272.32,758.69,290.32,770.69,290.32,764.69,272.32" style="stroke:#181818;stroke-width:1.0;"/></g><!--reverse link AbstractDiscardPile to GenericPile--><g id="link_AbstractDiscardPile_GenericPile"><path d="M745.6158,421.0657 C732.7858,447.6057 719.76,474.56 706.93,501.1 " fill="none" id="AbstractDiscardPile-backto-GenericPile" style="stroke:#181818;stroke-width:1.0;"/><polygon fill="none" points="753.45,404.86,740.2139,418.4543,751.0177,423.6771,753.45,404.86" style="stroke:#181818;stroke-width:1.0;"/></g><!--reverse link AbstractDiscardPile to PokerPile--><g id="link_AbstractDiscardPile_PokerPile"><path d="M784.0229,421.0225 C797.0329,447.5625 810.28,474.56 823.3,501.1 " fill="none" id="AbstractDiscardPile-backto-PokerPile" style="stroke:#181818;stroke-width:1.0;"/><polygon fill="none" points="776.1,404.86,778.6354,423.6635,789.4104,418.3816,776.1,404.86" style="stroke:#181818;stroke-width:1.0;"/></g><!--reverse link PokerDeck to PokerCard--><g id="link_PokerDeck_PokerCard"><path codeLine="66" d="M395.9156,561.7998 C396.1056,591.9498 396.36,631.98 396.55,662.06 " fill="none" id="PokerDeck-backto-PokerCard" style="stroke:#181818;stroke-width:1.0;"/><polygon fill="#181818" points="395.84,549.8,391.8779,555.8251,395.9156,561.7998,399.8777,555.7747,395.84,549.8" style="stroke:#181818;stroke-width:1.0;"/></g><!--reverse link PokerPile to PokerCard--><g id="link_PokerPile_PokerCard"><path codeLine="67" d="M793.2359,556.3519 C782.6459,563.4819 780.47,564.19 768.69,569.76 C660.02,621.14 522.91,656.9 449.25,673.96 " fill="none" id="PokerPile-backto-PokerCard" style="stroke:#181818;stroke-width:1.0;"/><polygon fill="#181818" points="803.19,549.65,795.979,549.6829,793.2359,556.3519,800.4469,556.319,803.19,549.65" style="stroke:#181818;stroke-width:1.0;"/></g><!--link Card to PokerSuit--><g id="link_Card_PokerSuit"><path codeLine="68" d="M259.69,570.21 C259.69,588.5 259.69,603.97 259.69,623.38 " fill="none" id="Card-to-PokerSuit" style="stroke:#181818;stroke-width:1.0;"/><polygon fill="#181818" points="259.69,629.38,263.69,620.38,259.69,624.38,255.69,620.38,259.69,629.38" style="stroke:#181818;stroke-width:1.0;"/></g><!--SRC=[hLFBQiCm4BpxAnPwIKlp0o44YWDjeT1083sK7XHxJKHisKZhlaB_lRjA7KbDMdhenQn6ezdHZeMcRs3HRj4kUqsmom2MdIhHSJ7NgcbDAUKDAajIv7M_Tjb7bcb3Q2jL8EJAbjFL9IndC9sILPfcCo_qhEeU9x3Yqh7u19PoiAYLSt2D1gqkehFuIiZDl1pi3aJlpMD71DCImhebQXjegy3aVk6KRheQ6pHxzuAyQDh0hI5Gva2LosUi3gAPnRURM_MYrZLEy_Hw9UEZymdSTwHRyvW_fKEPOx5DZmGZ1qq_fO8zEL6wquv4XwUbtr4GDYchJLzLjGT4TK-nw91EG0zykOLcTiSVtjLEz0LXKaHdishjs5j1i1_qrTToS3wCMzRUw1aK5XMX06ddCoX37x-Lj3rAtKiE-d5VYJMA_LVUFluQApg4Brj3efwMXEyH7txuKqBaKNJ1_3ybsFKq4j84ykFX063JqTlfiVsKKI26d29izttY2VEKIZhulz1FFZ_P71AGEWqW4lWnXn3UnNWSCOAl5FTFUZoUXNVy2G00]--></g></svg>