<svg xmlns="http://www.w3.org/2000/svg" xmlns:xlink="http://www.w3.org/1999/xlink" contentStyleType="text/css" height="724px" preserveAspectRatio="none" style="width:765px;height:724px;background:#FFFFFF;" version="1.1" viewBox="0 0 765 724" width="765px" zoomAndPan="magnify"><defs/><g><!--class Card--><g id="elem_Card"><rect codeLine="1" fill="#F1F1F1" height="88.8594" id="Card" rx="2.5" ry="2.5" style="stroke:#181818;stroke-width:0.5;" width="95.1699" x="606.19" y="340.31"/><ellipse cx="621.19" cy="360.4428" fill="#B4A7E5" rx="11" ry="11" style="stroke:#181818;stroke-width:1.0;"/><path d="M617.1119,356.2084 L617.1119,354.0522 L624.5025,354.0522 L624.5025,356.2084 L622.0338,356.2084 L622.0338,364.2866 L624.5025,364.2866 L624.5025,366.4428 L617.1119,366.4428 L617.1119,364.2866 L619.5806,364.2866 L619.5806,356.2084 L617.1119,356.2084 Z " fill="#000000"/><text fill="#000000" font-family="sans-serif" font-size="12" font-style="italic" lengthAdjust="spacing" textLength="39.7148" x="633.19" y="356.4487">&#171;trait&#187;</text><text fill="#000000" font-family="sans-serif" font-size="14" font-style="italic" lengthAdjust="spacing" textLength="32.9971" x="636.5489" y="372.2739">Card</text><rect fill="#FFFFFF" height="15.9688" style="stroke:#181818;stroke-width:1.0;stroke-dasharray:2.0,2.0;" width="25.4551" x="678.9048" y="337.31"/><text fill="#000000" font-family="sans-serif" font-size="12" font-style="italic" lengthAdjust="spacing" textLength="23.4551" x="679.9048" y="349.4487">V, S</text><line style="stroke:#181818;stroke-width:0.5;" x1="607.19" x2="700.3599" y1="380.5756" y2="380.5756"/><text fill="#000000" font-family="sans-serif" font-size="14" lengthAdjust="spacing" textLength="56.9844" x="612.19" y="397.5707">value: V</text><text fill="#000000" font-family="sans-serif" font-size="14" lengthAdjust="spacing" textLength="43.5996" x="612.19" y="413.8676">suit: S</text><line style="stroke:#181818;stroke-width:0.5;" x1="607.19" x2="700.3599" y1="421.1694" y2="421.1694"/></g><!--class PokerCard--><g id="elem_PokerCard"><rect codeLine="6" fill="#F1F1F1" height="48" id="PokerCard" rx="2.5" ry="2.5" style="stroke:#181818;stroke-width:0.5;" width="104.4814" x="519.53" y="521.77"/><ellipse cx="534.53" cy="537.77" fill="#ADD1B2" rx="11" ry="11" style="stroke:#181818;stroke-width:1.0;"/><path d="M537.4988,543.4106 Q536.9206,543.7075 536.28,543.8481 Q535.6394,544.0044 534.9363,544.0044 Q532.4363,544.0044 531.1081,542.3638 Q529.7956,540.7075 529.7956,537.5825 Q529.7956,534.4575 531.1081,532.8013 Q532.4363,531.145 534.9363,531.145 Q535.6394,531.145 536.28,531.3013 Q536.9363,531.4575 537.4988,531.7544 L537.4988,534.4731 Q536.8738,533.895 536.28,533.6294 Q535.6863,533.3481 535.0613,533.3481 Q533.7175,533.3481 533.03,534.4263 Q532.3425,535.4888 532.3425,537.5825 Q532.3425,539.6763 533.03,540.7544 Q533.7175,541.8169 535.0613,541.8169 Q535.6863,541.8169 536.28,541.5513 Q536.8738,541.27 537.4988,540.6919 L537.4988,543.4106 Z " fill="#000000"/><text fill="#000000" font-family="sans-serif" font-size="14" lengthAdjust="spacing" textLength="72.4814" x="548.53" y="542.6167">PokerCard</text><line style="stroke:#181818;stroke-width:0.5;" x1="520.53" x2="623.0114" y1="553.77" y2="553.77"/><line style="stroke:#181818;stroke-width:0.5;" x1="520.53" x2="623.0114" y1="561.77" y2="561.77"/></g><g id="elem_GMN5"><path d="M564.1,662.36 L564.1,717.7584 A0,0 0 0 0 564.1,717.7584 L733.4447,717.7584 A0,0 0 0 0 733.4447,717.7584 L733.4447,672.36 L723.4447,662.36 L638.07,662.36 L584.49,570.26 L630.07,662.36 L564.1,662.36 A0,0 0 0 0 564.1,662.36 " fill="#FEFFDD" style="stroke:#181818;stroke-width:0.5;"/><path d="M723.4447,662.36 L723.4447,672.36 L733.4447,672.36 L723.4447,662.36 " fill="#FEFFDD" style="stroke:#181818;stroke-width:0.5;"/><text fill="#000000" font-family="sans-serif" font-size="13" lengthAdjust="spacing" textLength="148.3447" x="570.1" y="679.4269">PokerCard implements</text><text fill="#000000" font-family="sans-serif" font-size="13" lengthAdjust="spacing" textLength="112.2456" x="570.1" y="694.5597">Card with Int and</text><text fill="#000000" font-family="sans-serif" font-size="13" lengthAdjust="spacing" textLength="61.8643" x="570.1" y="709.6925">PokerSuit</text></g><!--class PokerSuit--><g id="elem_PokerSuit"><rect codeLine="14" fill="#F1F1F1" height="113.1875" id="PokerSuit" rx="2.5" ry="2.5" style="stroke:#181818;stroke-width:0.5;" width="98.623" x="659.46" y="489.17"/><ellipse cx="674.46" cy="505.17" fill="#EB937F" rx="11" ry="11" style="stroke:#181818;stroke-width:1.0;"/><path d="M678.5694,511.17 L670.8506,511.17 L670.8506,498.7794 L678.5694,498.7794 L678.5694,500.9356 L673.3038,500.9356 L673.3038,503.6075 L678.0694,503.6075 L678.0694,505.7637 L673.3038,505.7637 L673.3038,509.0137 L678.5694,509.0137 L678.5694,511.17 Z " fill="#000000"/><text fill="#000000" font-family="sans-serif" font-size="14" lengthAdjust="spacing" textLength="66.623" x="688.46" y="510.0167">PokerSuit</text><line style="stroke:#181818;stroke-width:0.5;" x1="660.46" x2="757.083" y1="521.17" y2="521.17"/><text fill="#000000" font-family="sans-serif" font-size="14" lengthAdjust="spacing" textLength="51.1465" x="665.46" y="538.1651">Spades</text><text fill="#000000" font-family="sans-serif" font-size="14" lengthAdjust="spacing" textLength="70.5059" x="665.46" y="554.462">Diamonds</text><text fill="#000000" font-family="sans-serif" font-size="14" lengthAdjust="spacing" textLength="46.2588" x="665.46" y="570.7589">Hearts</text><text fill="#000000" font-family="sans-serif" font-size="14" lengthAdjust="spacing" textLength="38.7188" x="665.46" y="587.0557">Clubs</text><line style="stroke:#181818;stroke-width:0.5;" x1="660.46" x2="757.083" y1="594.3575" y2="594.3575"/></g><!--class Drawable--><g id="elem_Drawable"><rect codeLine="21" fill="#F1F1F1" height="72.5625" id="Drawable" rx="2.5" ry="2.5" style="stroke:#181818;stroke-width:0.5;" width="134.1855" x="243.68" y="10"/><ellipse cx="269.1526" cy="30.1328" fill="#B4A7E5" rx="11" ry="11" style="stroke:#181818;stroke-width:1.0;"/><path d="M265.0745,25.8984 L265.0745,23.7422 L272.4651,23.7422 L272.4651,25.8984 L269.9964,25.8984 L269.9964,33.9766 L272.4651,33.9766 L272.4651,36.1328 L265.0745,36.1328 L265.0745,33.9766 L267.5432,33.9766 L267.5432,25.8984 L265.0745,25.8984 Z " fill="#000000"/><text fill="#000000" font-family="sans-serif" font-size="12" font-style="italic" lengthAdjust="spacing" textLength="39.7148" x="298.8895" y="26.1387">&#171;trait&#187;</text><text fill="#000000" font-family="sans-serif" font-size="14" font-style="italic" lengthAdjust="spacing" textLength="66.5342" x="285.4799" y="41.9639">Drawable</text><rect fill="#FFFFFF" height="15.9688" style="stroke:#181818;stroke-width:1.0;stroke-dasharray:2.0,2.0;" width="10.3789" x="370.4866" y="7"/><text fill="#000000" font-family="sans-serif" font-size="12" font-style="italic" lengthAdjust="spacing" textLength="8.3789" x="371.4866" y="19.1387">C</text><line style="stroke:#181818;stroke-width:0.5;" x1="244.68" x2="376.8655" y1="50.2656" y2="50.2656"/><line style="stroke:#181818;stroke-width:0.5;" x1="244.68" x2="376.8655" y1="58.2656" y2="58.2656"/><text fill="#000000" font-family="sans-serif" font-size="14" lengthAdjust="spacing" textLength="122.1855" x="249.68" y="75.2607">draw(): Option[C]</text></g><!--class Deck--><g id="elem_Deck"><rect codeLine="25" fill="#F1F1F1" height="137.75" id="Deck" rx="2.5" ry="2.5" style="stroke:#181818;stroke-width:0.5;" width="313.5469" x="7" y="142.56"/><ellipse cx="135.4766" cy="162.6928" fill="#B4A7E5" rx="11" ry="11" style="stroke:#181818;stroke-width:1.0;"/><path d="M131.3984,158.4584 L131.3984,156.3022 L138.7891,156.3022 L138.7891,158.4584 L136.3203,158.4584 L136.3203,166.5366 L138.7891,166.5366 L138.7891,168.6928 L131.3984,168.6928 L131.3984,166.5366 L133.8672,166.5366 L133.8672,158.4584 L131.3984,158.4584 Z " fill="#000000"/><text fill="#000000" font-family="sans-serif" font-size="12" font-style="italic" lengthAdjust="spacing" textLength="39.7148" x="153.9766" y="158.6987">&#171;trait&#187;</text><text fill="#000000" font-family="sans-serif" font-size="14" font-style="italic" lengthAdjust="spacing" textLength="35.1982" x="156.2349" y="174.5239">Deck</text><rect fill="#FFFFFF" height="15.9688" style="stroke:#181818;stroke-width:1.0;stroke-dasharray:2.0,2.0;" width="10.3789" x="313.168" y="139.56"/><text fill="#000000" font-family="sans-serif" font-size="12" font-style="italic" lengthAdjust="spacing" textLength="8.3789" x="314.168" y="151.6987">C</text><line style="stroke:#181818;stroke-width:0.5;" x1="8" x2="319.5469" y1="182.8256" y2="182.8256"/><line style="stroke:#181818;stroke-width:0.5;" x1="8" x2="319.5469" y1="190.8256" y2="190.8256"/><text fill="#000000" font-family="sans-serif" font-size="14" lengthAdjust="spacing" textLength="103.4756" x="13" y="207.8207">cards(): List[C]</text><text fill="#000000" font-family="sans-serif" font-size="14" lengthAdjust="spacing" textLength="65.7275" x="13" y="224.1176">size(): Int</text><text fill="#000000" font-family="sans-serif" font-size="14" lengthAdjust="spacing" textLength="123.3887" x="13" y="240.4145">shuffle(): Deck[C]</text><text fill="#000000" font-family="sans-serif" font-size="14" lengthAdjust="spacing" textLength="111.7539" x="13" y="256.7114">reset(): Deck[C]</text><text fill="#000000" font-family="sans-serif" font-size="14" lengthAdjust="spacing" textLength="301.5469" x="13" y="273.0082">resetWithPile(pile: DiscardPile[C]): Deck[C]</text></g><!--class DiscardPile--><g id="elem_DiscardPile"><rect codeLine="33" fill="#F1F1F1" height="121.4531" id="DiscardPile" rx="2.5" ry="2.5" style="stroke:#181818;stroke-width:0.5;" width="203.6182" x="355.96" y="150.71"/><ellipse cx="408.4707" cy="170.8428" fill="#B4A7E5" rx="11" ry="11" style="stroke:#181818;stroke-width:1.0;"/><path d="M404.3926,166.6084 L404.3926,164.4522 L411.7832,164.4522 L411.7832,166.6084 L409.3145,166.6084 L409.3145,174.6866 L411.7832,174.6866 L411.7832,176.8428 L404.3926,176.8428 L404.3926,174.6866 L406.8614,174.6866 L406.8614,166.6084 L404.3926,166.6084 Z " fill="#000000"/><text fill="#000000" font-family="sans-serif" font-size="12" font-style="italic" lengthAdjust="spacing" textLength="39.7148" x="447.9722" y="166.8487">&#171;trait&#187;</text><text fill="#000000" font-family="sans-serif" font-size="14" font-style="italic" lengthAdjust="spacing" textLength="77.7178" x="428.9707" y="182.6739">DiscardPile</text><rect fill="#FFFFFF" height="15.9688" style="stroke:#181818;stroke-width:1.0;stroke-dasharray:2.0,2.0;" width="10.3789" x="552.1993" y="147.71"/><text fill="#000000" font-family="sans-serif" font-size="12" font-style="italic" lengthAdjust="spacing" textLength="8.3789" x="553.1993" y="159.8487">C</text><line style="stroke:#181818;stroke-width:0.5;" x1="356.96" x2="558.5782" y1="190.9756" y2="190.9756"/><text fill="#000000" font-family="sans-serif" font-size="14" lengthAdjust="spacing" textLength="92.5518" x="361.96" y="207.9707">cards: List[C]</text><line style="stroke:#181818;stroke-width:0.5;" x1="356.96" x2="558.5782" y1="215.2725" y2="215.2725"/><text fill="#000000" font-family="sans-serif" font-size="14" lengthAdjust="spacing" textLength="65.7275" x="361.96" y="232.2676">size(): Int</text><text fill="#000000" font-family="sans-serif" font-size="14" lengthAdjust="spacing" textLength="191.6182" x="361.96" y="248.5645">put(card: C): DiscardPile[C]</text><text fill="#000000" font-family="sans-serif" font-size="14" lengthAdjust="spacing" textLength="163.4199" x="361.96" y="264.8614">empty(): DiscardPile[C]</text></g><!--class AbstractDeck--><g id="elem_AbstractDeck"><rect codeLine="40" fill="#F1F1F1" height="80.5938" id="AbstractDeck" rx="2.5" ry="2.5" style="stroke:#181818;stroke-width:0.5;" width="220.332" x="82.61" y="344.45"/><ellipse cx="135.3532" cy="360.45" fill="#A9DCDF" rx="11" ry="11" style="stroke:#181818;stroke-width:1.0;"/><path d="M135.4625,355.7938 L134.3063,360.8719 L136.6344,360.8719 L135.4625,355.7938 Z M133.9782,353.5594 L136.9625,353.5594 L140.3219,365.95 L137.8688,365.95 L137.1032,362.8875 L133.8219,362.8875 L133.0719,365.95 L130.6344,365.95 L133.9782,353.5594 Z " fill="#000000"/><text fill="#000000" font-family="sans-serif" font-size="14" font-style="italic" lengthAdjust="spacing" textLength="93.9668" x="155.8532" y="365.2967">AbstractDeck</text><rect fill="#FFFFFF" height="15.9688" style="stroke:#181818;stroke-width:1.0;stroke-dasharray:2.0,2.0;" width="10.3789" x="295.5631" y="341.45"/><text fill="#000000" font-family="sans-serif" font-size="12" font-style="italic" lengthAdjust="spacing" textLength="8.3789" x="296.5631" y="353.5887">C</text><line style="stroke:#181818;stroke-width:0.5;" x1="83.61" x2="301.942" y1="376.45" y2="376.45"/><line style="stroke:#181818;stroke-width:0.5;" x1="83.61" x2="301.942" y1="384.45" y2="384.45"/><polygon fill="#FFFF44" points="93.61,393.0984,97.61,397.0984,93.61,401.0984,89.61,397.0984" style="stroke:#B38D22;stroke-width:1.0;"/><text fill="#000000" font-family="sans-serif" font-size="14" lengthAdjust="spacing" textLength="155.9346" x="102.61" y="401.4451">createDeck(): Deck[C]</text><polygon fill="#FFFF44" points="93.61,409.3953,97.61,413.3953,93.61,417.3953,89.61,413.3953" style="stroke:#B38D22;stroke-width:1.0;"/><text fill="#000000" font-family="sans-serif" font-size="14" lengthAdjust="spacing" textLength="194.332" x="102.61" y="417.742">discardPile(): DiscardPile[C]</text></g><!--class AbstractDiscardPile--><g id="elem_AbstractDiscardPile"><rect codeLine="45" fill="#F1F1F1" height="48" id="AbstractDiscardPile" rx="2.5" ry="2.5" style="stroke:#181818;stroke-width:0.5;" width="180.8652" x="352.34" y="360.74"/><ellipse cx="367.34" cy="376.74" fill="#A9DCDF" rx="11" ry="11" style="stroke:#181818;stroke-width:1.0;"/><path d="M367.4494,372.0838 L366.2931,377.1619 L368.6213,377.1619 L367.4494,372.0838 Z M365.965,369.8494 L368.9494,369.8494 L372.3088,382.24 L369.8556,382.24 L369.09,379.1775 L365.8088,379.1775 L365.0588,382.24 L362.6213,382.24 L365.965,369.8494 Z " fill="#000000"/><text fill="#000000" font-family="sans-serif" font-size="14" font-style="italic" lengthAdjust="spacing" textLength="136.4863" x="381.34" y="381.5867">AbstractDiscardPile</text><rect fill="#FFFFFF" height="15.9688" style="stroke:#181818;stroke-width:1.0;stroke-dasharray:2.0,2.0;" width="10.3789" x="525.8263" y="357.74"/><text fill="#000000" font-family="sans-serif" font-size="12" font-style="italic" lengthAdjust="spacing" textLength="8.3789" x="526.8263" y="369.8787">C</text><line style="stroke:#181818;stroke-width:0.5;" x1="353.34" x2="532.2052" y1="392.74" y2="392.74"/><line style="stroke:#181818;stroke-width:0.5;" x1="353.34" x2="532.2052" y1="400.74" y2="400.74"/></g><!--class PokerDeck--><g id="elem_PokerDeck"><rect codeLine="47" fill="#F1F1F1" height="48" id="PokerDeck" rx="2.5" ry="2.5" style="stroke:#181818;stroke-width:0.5;" width="106.6826" x="147.43" y="521.77"/><ellipse cx="162.43" cy="537.77" fill="#ADD1B2" rx="11" ry="11" style="stroke:#181818;stroke-width:1.0;"/><path d="M165.3988,543.4106 Q164.8206,543.7075 164.18,543.8481 Q163.5394,544.0044 162.8363,544.0044 Q160.3363,544.0044 159.0081,542.3638 Q157.6956,540.7075 157.6956,537.5825 Q157.6956,534.4575 159.0081,532.8013 Q160.3363,531.145 162.8363,531.145 Q163.5394,531.145 164.18,531.3013 Q164.8363,531.4575 165.3988,531.7544 L165.3988,534.4731 Q164.7738,533.895 164.18,533.6294 Q163.5863,533.3481 162.9613,533.3481 Q161.6175,533.3481 160.93,534.4263 Q160.2425,535.4888 160.2425,537.5825 Q160.2425,539.6763 160.93,540.7544 Q161.6175,541.8169 162.9613,541.8169 Q163.5863,541.8169 164.18,541.5513 Q164.7738,541.27 165.3988,540.6919 L165.3988,543.4106 Z " fill="#000000"/><text fill="#000000" font-family="sans-serif" font-size="14" lengthAdjust="spacing" textLength="74.6826" x="176.43" y="542.6167">PokerDeck</text><line style="stroke:#181818;stroke-width:0.5;" x1="148.43" x2="253.1126" y1="553.77" y2="553.77"/><line style="stroke:#181818;stroke-width:0.5;" x1="148.43" x2="253.1126" y1="561.77" y2="561.77"/></g><g id="elem_GMN20"><path d="M115.08,669.93 L115.08,710.1956 A0,0 0 0 0 115.08,710.1956 L286.4687,710.1956 A0,0 0 0 0 286.4687,710.1956 L286.4687,679.93 L276.4687,669.93 L204.77,669.93 L200.77,570.26 L196.77,669.93 L115.08,669.93 A0,0 0 0 0 115.08,669.93 " fill="#FEFFDD" style="stroke:#181818;stroke-width:0.5;"/><path d="M276.4687,669.93 L276.4687,679.93 L286.4687,679.93 L276.4687,669.93 " fill="#FEFFDD" style="stroke:#181818;stroke-width:0.5;"/><text fill="#000000" font-family="sans-serif" font-size="13" lengthAdjust="spacing" textLength="150.3887" x="121.08" y="686.9969">PokerDeck implements</text><text fill="#000000" font-family="sans-serif" font-size="13" lengthAdjust="spacing" textLength="135.8335" x="121.08" y="702.1297">Deck with PokerCard</text></g><!--class PokerPile--><g id="elem_PokerPile"><rect codeLine="54" fill="#F1F1F1" height="48" id="PokerPile" rx="2.5" ry="2.5" style="stroke:#181818;stroke-width:0.5;" width="96.3193" x="388.61" y="521.77"/><ellipse cx="403.61" cy="537.77" fill="#ADD1B2" rx="11" ry="11" style="stroke:#181818;stroke-width:1.0;"/><path d="M406.5788,543.4106 Q406.0006,543.7075 405.36,543.8481 Q404.7194,544.0044 404.0163,544.0044 Q401.5163,544.0044 400.1881,542.3638 Q398.8756,540.7075 398.8756,537.5825 Q398.8756,534.4575 400.1881,532.8013 Q401.5163,531.145 404.0163,531.145 Q404.7194,531.145 405.36,531.3013 Q406.0163,531.4575 406.5788,531.7544 L406.5788,534.4731 Q405.9538,533.895 405.36,533.6294 Q404.7663,533.3481 404.1413,533.3481 Q402.7975,533.3481 402.11,534.4263 Q401.4225,535.4888 401.4225,537.5825 Q401.4225,539.6763 402.11,540.7544 Q402.7975,541.8169 404.1413,541.8169 Q404.7663,541.8169 405.36,541.5513 Q405.9538,541.27 406.5788,540.6919 L406.5788,543.4106 Z " fill="#000000"/><text fill="#000000" font-family="sans-serif" font-size="14" lengthAdjust="spacing" textLength="64.3193" x="417.61" y="542.6167">PokerPile</text><line style="stroke:#181818;stroke-width:0.5;" x1="389.61" x2="483.9293" y1="553.77" y2="553.77"/><line style="stroke:#181818;stroke-width:0.5;" x1="389.61" x2="483.9293" y1="561.77" y2="561.77"/></g><g id="elem_GMN25"><path d="M332.62,669.93 L332.62,710.1956 A0,0 0 0 0 332.62,710.1956 L528.9359,710.1956 A0,0 0 0 0 528.9359,710.1956 L528.9359,679.93 L518.9359,669.93 L435.59,669.93 L435.78,570.26 L427.59,669.93 L332.62,669.93 A0,0 0 0 0 332.62,669.93 " fill="#FEFFDD" style="stroke:#181818;stroke-width:0.5;"/><path d="M518.9359,669.93 L518.9359,679.93 L528.9359,679.93 L518.9359,669.93 " fill="#FEFFDD" style="stroke:#181818;stroke-width:0.5;"/><text fill="#000000" font-family="sans-serif" font-size="13" lengthAdjust="spacing" textLength="140.7656" x="338.62" y="686.9969">PokerPile implements</text><text fill="#000000" font-family="sans-serif" font-size="13" lengthAdjust="spacing" textLength="175.3159" x="338.62" y="702.1297">DiscardPile with PokerCard</text></g><!--reverse link Card to PokerCard--><g id="link_Card_PokerCard"><path d="M622.901,445.6186 C607.541,475.4086 596.09,497.61 583.7,521.64 " fill="none" id="Card-backto-PokerCard" style="stroke:#181818;stroke-width:1.0;"/><polygon fill="none" points="631.15,429.62,617.5681,442.8689,628.2338,448.3682,631.15,429.62" style="stroke:#181818;stroke-width:1.0;"/></g><!--reverse link Drawable to Deck--><g id="link_Drawable_Deck"><path d="M266.8289,96.0605 C251.1189,113.4905 243.69,121.74 225.24,142.22 " fill="none" id="Drawable-backto-Deck" style="stroke:#181818;stroke-width:1.0;"/><polygon fill="none" points="278.88,82.69,262.3721,92.0435,271.2857,100.0776,278.88,82.69" style="stroke:#181818;stroke-width:1.0;"/></g><!--reverse link Drawable to DiscardPile--><g id="link_Drawable_DiscardPile"><path d="M354.7215,96.0602 C372.5415,115.8302 383.17,127.63 403.68,150.4 " fill="none" id="Drawable-backto-DiscardPile" style="stroke:#181818;stroke-width:1.0;"/><polygon fill="none" points="342.67,82.69,350.2647,100.0774,359.1782,92.0431,342.67,82.69" style="stroke:#181818;stroke-width:1.0;"/></g><!--reverse link Deck to AbstractDeck--><g id="link_Deck_AbstractDeck"><path d="M178.3217,298.3879 C181.9817,320.0279 182.91,325.48 186.11,344.38 " fill="none" id="Deck-backto-AbstractDeck" style="stroke:#181818;stroke-width:1.0;"/><polygon fill="none" points="175.32,280.64,172.4058,299.3885,184.2377,297.3874,175.32,280.64" style="stroke:#181818;stroke-width:1.0;"/></g><!--reverse link DiscardPile to AbstractDiscardPile--><g id="link_DiscardPile_AbstractDiscardPile"><path d="M450.9559,290.281 C448.2959,320.581 446.81,337.68 444.83,360.25 " fill="none" id="DiscardPile-backto-AbstractDiscardPile" style="stroke:#181818;stroke-width:1.0;"/><polygon fill="none" points="452.53,272.35,444.9788,289.7563,456.9329,290.8058,452.53,272.35" style="stroke:#181818;stroke-width:1.0;"/></g><!--reverse link AbstractDeck to PokerDeck--><g id="link_AbstractDeck_PokerDeck"><path d="M195.6754,443.4372 C197.1954,473.6172 198.33,496.11 199.59,521.31 " fill="none" id="AbstractDeck-backto-PokerDeck" style="stroke:#181818;stroke-width:1.0;"/><polygon fill="none" points="194.77,425.46,189.683,443.739,201.6678,443.1354,194.77,425.46" style="stroke:#181818;stroke-width:1.0;"/></g><!--reverse link AbstractDiscardPile to PokerPile--><g id="link_AbstractDiscardPile_PokerPile"><path d="M441.2099,427.1971 C440.0699,457.3471 438.79,491.39 437.65,521.47 " fill="none" id="AbstractDiscardPile-backto-PokerPile" style="stroke:#181818;stroke-width:1.0;"/><polygon fill="none" points="441.89,409.21,435.2142,426.9704,447.2056,427.4239,441.89,409.21" style="stroke:#181818;stroke-width:1.0;"/></g><!--reverse link PokerDeck to PokerCard--><g id="link_PokerDeck_PokerCard"><path codeLine="62" d="M243.3789,514.5423 C297.0589,477.6423 396.8,422.5 485.27,459.17 C515.5,471.71 540.66,500.5 555.92,521.45 " fill="none" id="PokerDeck-backto-PokerCard" style="stroke:#181818;stroke-width:1.0;"/><polygon fill="#181818" points="233.49,521.34,240.7004,521.2375,243.3789,514.5423,236.1686,514.6448,233.49,521.34" style="stroke:#181818;stroke-width:1.0;"/></g><!--reverse link PokerPile to PokerCard--><g id="link_PokerPile_PokerCard"><path codeLine="63" d="M497.29,545.77 C508.55,545.77 507.81,545.77 519.07,545.77 " fill="none" id="PokerPile-backto-PokerCard" style="stroke:#181818;stroke-width:1.0;"/><polygon fill="#181818" points="485.29,545.77,491.29,549.77,497.29,545.77,491.29,541.77,485.29,545.77" style="stroke:#181818;stroke-width:1.0;"/></g><!--link Card to PokerSuit--><g id="link_Card_PokerSuit"><path codeLine="64" d="M668.95,429.62 C675.28,447.91 680.7396,463.7093 687.4496,483.1193 " fill="none" id="Card-to-PokerSuit" style="stroke:#181818;stroke-width:1.0;"/><polygon fill="#181818" points="689.41,488.79,690.2499,478.977,687.7764,484.0644,682.689,481.5908,689.41,488.79" style="stroke:#181818;stroke-width:1.0;"/></g><!--SRC=[bLFDQi904BxlKmnuqL9VG4AWn4CBXGg2FPGUrcI2Y_bZTrBRIj-ziwl9Rg92UmcPcM- -dp1H5Q7EPOgGI9r5ctjOnn15fAMYE8QZ-915YmlO2DCgMi1Q_0YH5j8OMDLxr7OBy9EmoeoZW2C3gfeGjZLHNKATUwJmEwfi2Yon8YDSVL2qWwUAG5Pds9e51VDQCi4lRGbzdusj6vcX4Kibovh5nIDARScATckiITKdMsfvaDi2esGOBUF-TBQ0buPKNRqbxwCrJFV3bIvdHyWSANitbkHP6R8KHdsZhJcACBispmjNMZ8xrcYGBXgl77wb6DdmWsVAM5xROKW07lhpgB_Pl6woQMbgnmj8PcDfWML3NzFBFXkHMyE2AS7f6XxEPVVLUXDSiu49f1ebeIt3-1F8FFF_X8RnUptVTgSOtAgpqk52lpTlrWw5tmrkrjNkPlrnCo-SZZKGTKOkH4SchsdReV0KeNQmVTD2yAlD2ynfVZUET3bpagVsFFO_soy0]--></g></svg>