<?xml version="1.0" encoding="us-ascii" standalone="no"?><svg xmlns="http://www.w3.org/2000/svg" xmlns:xlink="http://www.w3.org/1999/xlink" contentStyleType="text/css" height="609px" preserveAspectRatio="none" style="width:693px;height:609px;background:#FFFFFF;" version="1.1" viewBox="0 0 693 609" width="693px" zoomAndPan="magnify"><defs/><g><!--class GameProvider--><g id="elem_GameProvider"><rect codeLine="2" fill="#F1F1F1" height="73.1094" id="GameProvider" rx="2.5" ry="2.5" style="stroke:#181818;stroke-width:0.5;" width="128" x="127" y="529.61"/><ellipse cx="142" cy="549.9205" fill="#B4A7E5" rx="11" ry="11" style="stroke:#181818;stroke-width:1.0;"/><path d="M137.9277,545.6857 L137.9277,543.5275 L145.3071,543.5275 L145.3071,545.6857 L142.8418,545.6857 L142.8418,553.7623 L145.3071,553.7623 L145.3071,555.9205 L137.9277,555.9205 L137.9277,553.7623 L140.3931,553.7623 L140.3931,545.6857 Z " fill="#000000"/><text fill="#000000" font-family="sans-serif" font-size="12" font-style="italic" lengthAdjust="spacing" textLength="35" x="186.5" y="546.2116">&#171;trait&#187;</text><text fill="#000000" font-family="sans-serif" font-size="14" font-style="italic" lengthAdjust="spacing" textLength="96" x="156" y="562.278">GameProvider</text><line style="stroke:#181818;stroke-width:0.5;" x1="128" x2="254" y1="570.2311" y2="570.2311"/><text fill="#000000" font-family="sans-serif" font-size="14" lengthAdjust="spacing" textLength="85" x="133" y="587.7663">game: Game</text><line style="stroke:#181818;stroke-width:0.5;" x1="128" x2="254" y1="594.7194" y2="594.7194"/></g><!--class GameLogic--><g id="elem_GameLogic"><rect codeLine="6" fill="#F1F1F1" height="89.5977" id="GameLogic" rx="2.5" ry="2.5" style="stroke:#181818;stroke-width:0.5;" width="368" x="7" y="380.01"/><ellipse cx="149.25" cy="400.3205" fill="#B4A7E5" rx="11" ry="11" style="stroke:#181818;stroke-width:1.0;"/><path d="M145.1777,396.0857 L145.1777,393.9275 L152.5571,393.9275 L152.5571,396.0857 L150.0918,396.0857 L150.0918,404.1623 L152.5571,404.1623 L152.5571,406.3205 L145.1777,406.3205 L145.1777,404.1623 L147.6431,404.1623 L147.6431,396.0857 Z " fill="#000000"/><text fill="#000000" font-family="sans-serif" font-size="12" font-style="italic" lengthAdjust="spacing" textLength="35" x="189.75" y="396.6116">&#171;trait&#187;</text><text fill="#000000" font-family="sans-serif" font-size="14" font-style="italic" lengthAdjust="spacing" textLength="75" x="169.75" y="412.678">GameLogic</text><line style="stroke:#181818;stroke-width:0.5;" x1="8" x2="374" y1="420.6311" y2="420.6311"/><line style="stroke:#181818;stroke-width:0.5;" x1="8" x2="374" y1="428.6311" y2="428.6311"/><text fill="#000000" font-family="sans-serif" font-size="14" lengthAdjust="spacing" textLength="187" x="13" y="446.1663">setup(nPlayers: Int): Players</text><text fill="#000000" font-family="sans-serif" font-size="14" lengthAdjust="spacing" textLength="356" x="13" y="462.6545">setupWithBots(botsParams: BotParamsType): Players</text></g><!--class Logic--><g id="elem_Logic"><rect codeLine="13" fill="#F1F1F1" height="205.0156" id="Logic" rx="2.5" ry="2.5" style="stroke:#181818;stroke-width:0.5;" width="232" x="253" y="7"/><ellipse cx="346.75" cy="27.3105" fill="#B4A7E5" rx="11" ry="11" style="stroke:#181818;stroke-width:1.0;"/><path d="M342.6777,23.0757 L342.6777,20.9175 L350.0571,20.9175 L350.0571,23.0757 L347.5918,23.0757 L347.5918,31.1523 L350.0571,31.1523 L350.0571,33.3105 L342.6777,33.3105 L342.6777,31.1523 L345.1431,31.1523 L345.1431,23.0757 Z " fill="#000000"/><text fill="#000000" font-family="sans-serif" font-size="12" font-style="italic" lengthAdjust="spacing" textLength="35" x="367.75" y="23.6016">&#171;trait&#187;</text><text fill="#000000" font-family="sans-serif" font-size="14" font-style="italic" lengthAdjust="spacing" textLength="36" x="367.25" y="39.668">Logic</text><line style="stroke:#181818;stroke-width:0.5;" x1="254" x2="484" y1="47.6211" y2="47.6211"/><text fill="#000000" font-family="sans-serif" font-size="14" lengthAdjust="spacing" textLength="105" x="259" y="65.1563">players: Players</text><text fill="#000000" font-family="sans-serif" font-size="14" lengthAdjust="spacing" textLength="173" x="259" y="81.6445">currentPlayer: PlayerType</text><text fill="#000000" font-family="sans-serif" font-size="14" lengthAdjust="spacing" textLength="121" x="259" y="98.1328">nextPlayer: Player</text><text fill="#000000" font-family="sans-serif" font-size="14" lengthAdjust="spacing" textLength="145" x="259" y="114.6211">isGameOver: Boolean</text><text fill="#000000" font-family="sans-serif" font-size="14" lengthAdjust="spacing" textLength="151" x="259" y="131.1094">calculateScore: Scores</text><line style="stroke:#181818;stroke-width:0.5;" x1="254" x2="484" y1="138.0625" y2="138.0625"/><text fill="#000000" font-family="sans-serif" font-size="14" lengthAdjust="spacing" textLength="220" x="259" y="155.5977">getPlayer(index: Int): PlayerType</text><text fill="#000000" font-family="sans-serif" font-size="14" lengthAdjust="spacing" textLength="106" x="259" y="172.0859">continue(): Unit</text><text fill="#000000" font-family="sans-serif" font-size="14" lengthAdjust="spacing" textLength="197" x="259" y="188.5742">seeCard(cardIndex: Int): Unit</text><text fill="#000000" font-family="sans-serif" font-size="14" lengthAdjust="spacing" textLength="164" x="259" y="205.0625">handleGameOver(): Unit</text></g><!--class GameWithTurnPhases--><g id="elem_GameWithTurnPhases"><rect codeLine="25" fill="#F1F1F1" height="89.5977" id="GameWithTurnPhases" rx="2.5" ry="2.5" style="stroke:#181818;stroke-width:0.5;" width="277" x="409.5" y="380.01"/><ellipse cx="469.25" cy="400.3205" fill="#B4A7E5" rx="11" ry="11" style="stroke:#181818;stroke-width:1.0;"/><path d="M465.1777,396.0857 L465.1777,393.9275 L472.5571,393.9275 L472.5571,396.0857 L470.0918,396.0857 L470.0918,404.1623 L472.5571,404.1623 L472.5571,406.3205 L465.1777,406.3205 L465.1777,404.1623 L467.6431,404.1623 L467.6431,396.0857 Z " fill="#000000"/><text fill="#000000" font-family="sans-serif" font-size="12" font-style="italic" lengthAdjust="spacing" textLength="35" x="546.75" y="396.6116">&#171;trait&#187;</text><text fill="#000000" font-family="sans-serif" font-size="14" font-style="italic" lengthAdjust="spacing" textLength="149" x="489.75" y="412.678">GameWithTurnPhases</text><line style="stroke:#181818;stroke-width:0.5;" x1="410.5" x2="685.5" y1="420.6311" y2="420.6311"/><text fill="#000000" font-family="sans-serif" font-size="14" lengthAdjust="spacing" textLength="171" x="415.5" y="438.1663">currentPhase: TurnPhase</text><line style="stroke:#181818;stroke-width:0.5;" x1="410.5" x2="685.5" y1="445.1194" y2="445.1194"/><text fill="#000000" font-family="sans-serif" font-size="14" lengthAdjust="spacing" textLength="265" x="415.5" y="462.6545">currentPhase_(phase: TurnPhase): Unit</text></g><!--class TurnPhase--><g id="elem_TurnPhase"><rect codeLine="30" fill="#F1F1F1" height="56.6211" id="TurnPhase" rx="2.5" ry="2.5" style="stroke:#181818;stroke-width:0.5;" width="105" x="495.5" y="537.85"/><ellipse cx="510.5" cy="558.1605" fill="#B4A7E5" rx="11" ry="11" style="stroke:#181818;stroke-width:1.0;"/><path d="M506.4277,553.9257 L506.4277,551.7675 L513.8071,551.7675 L513.8071,553.9257 L511.3418,553.9257 L511.3418,562.0023 L513.8071,562.0023 L513.8071,564.1605 L506.4277,564.1605 L506.4277,562.0023 L508.8931,562.0023 L508.8931,553.9257 Z " fill="#000000"/><text fill="#000000" font-family="sans-serif" font-size="12" font-style="italic" lengthAdjust="spacing" textLength="35" x="543.5" y="554.4516">&#171;trait&#187;</text><text fill="#000000" font-family="sans-serif" font-size="14" font-style="italic" lengthAdjust="spacing" textLength="73" x="524.5" y="570.518">TurnPhase</text><line style="stroke:#181818;stroke-width:0.5;" x1="496.5" x2="599.5" y1="578.4711" y2="578.4711"/><line style="stroke:#181818;stroke-width:0.5;" x1="496.5" x2="599.5" y1="586.4711" y2="586.4711"/></g><!--class AppLogic--><g id="elem_AppLogic"><rect codeLine="34" fill="#F1F1F1" height="48" id="AppLogic" rx="2.5" ry="2.5" style="stroke:#181818;stroke-width:0.5;" width="96" x="321" y="272.01"/><ellipse cx="336" cy="288.01" fill="#ADD1B2" rx="11" ry="11" style="stroke:#181818;stroke-width:1.0;"/><path d="M338.9731,293.6531 Q338.3921,293.9519 337.7529,294.1013 Q337.1138,294.2507 336.4082,294.2507 Q333.9014,294.2507 332.5815,292.5989 Q331.2617,290.947 331.2617,287.8259 Q331.2617,284.6965 332.5815,283.0447 Q333.9014,281.3928 336.4082,281.3928 Q337.1138,281.3928 337.7612,281.5422 Q338.4087,281.6916 338.9731,281.9905 L338.9731,284.7131 Q338.3423,284.1321 337.7488,283.8623 Q337.1553,283.5925 336.5244,283.5925 Q335.1797,283.5925 334.4949,284.6592 Q333.8101,285.7258 333.8101,287.8259 Q333.8101,289.9177 334.4949,290.9844 Q335.1797,292.051 336.5244,292.051 Q337.1553,292.051 337.7488,291.7812 Q338.3423,291.5115 338.9731,290.9304 Z " fill="#000000"/><text fill="#000000" font-family="sans-serif" font-size="14" lengthAdjust="spacing" textLength="64" x="350" y="293.301">AppLogic</text><line style="stroke:#181818;stroke-width:0.5;" x1="322" x2="416" y1="304.01" y2="304.01"/><line style="stroke:#181818;stroke-width:0.5;" x1="322" x2="416" y1="312.01" y2="312.01"/></g><!--link GameLogic to GameProvider--><g id="link_GameLogic_GameProvider"><path codeLine="11" d="M191,469.9 C191,489.04 191,493.17 191,511.28 " fill="none" id="GameLogic-to-GameProvider" style="stroke:#181818;stroke-width:1.0;"/><polygon fill="none" points="191,529.28,197,511.28,185,511.28,191,529.28" style="stroke:#181818;stroke-width:1.0;"/></g><!--link GameWithTurnPhases to TurnPhase--><g id="link_GameWithTurnPhases_TurnPhase"><path codeLine="32" d="M548,469.9 C548,492.07 548,512.25 548,531.55 " fill="none" id="GameWithTurnPhases-to-TurnPhase" style="stroke:#181818;stroke-width:1.0;"/><polygon fill="#181818" points="548,537.55,552,528.55,548,532.55,544,528.55,548,537.55" style="stroke:#181818;stroke-width:1.0;"/></g><!--reverse link Logic to AppLogic--><g id="link_Logic_AppLogic"><path d="M369,230.47 C369,252.64 369,256.05 369,271.51 " fill="none" id="Logic-backto-AppLogic" style="stroke:#181818;stroke-width:1.0;"/><polygon fill="none" points="369,212.47,363,230.47,375,230.47,369,212.47" style="stroke:#181818;stroke-width:1.0;"/></g><!--link AppLogic to GameLogic--><g id="link_AppLogic_GameLogic"><path codeLine="36" d="M336.35,320.27 C313.07,336.86 295.702,349.2285 267.632,369.2185 " fill="none" id="AppLogic-to-GameLogic" style="stroke:#181818;stroke-width:1.0;"/><polygon fill="none" points="252.97,379.66,271.1125,374.1058,264.1515,364.3311,252.97,379.66" style="stroke:#181818;stroke-width:1.0;"/></g><!--link AppLogic to GameWithTurnPhases--><g id="link_AppLogic_GameWithTurnPhases"><path codeLine="37" d="M401.83,320.27 C425.25,336.86 442.76,349.2679 470.99,369.2579 " fill="none" id="AppLogic-to-GameWithTurnPhases" style="stroke:#181818;stroke-width:1.0;"/><polygon fill="none" points="485.68,379.66,474.4574,364.3612,467.5226,374.1545,485.68,379.66" style="stroke:#181818;stroke-width:1.0;"/></g><!--SRC=[RL7BQiCm4BphAtHK3_u14mnD3oLGgA4fFPQjl8q5paf8SaXe- - -L8Z-LN2HhPtPdFAl8e_q6YVmPZbXRVL8DMhxPU0lALnN_OPmV0bHU2UoFCRLgUT479JE-GzyRGNK75xIkv3lo3oKVdYF-eNoxrTw9ht3KOE4OcA6GFlSNWukU83kB5SLljRAxz7JFZncDp1OEwDD3A6hmlFOOnGD7zjOY3RmC8pndG6pGv1NrACAaTr8-b9IBHbzFaRVLkaEWI8HEzXruV9FQXcYlLqe6dy0sGePZjpGsZ6k1cWx7aPFEpLPYkFlUKjs2GvV5CVvNn4e-qJBaKvYCS5TjGcUHjAlCGb5K2oacEt2EFngJzXNIH6fSsXvZKtrQTG9kwsiLzWy0]--></g></svg>