<?xml version="1.0" encoding="us-ascii" standalone="no"?><svg xmlns="http://www.w3.org/2000/svg" xmlns:xlink="http://www.w3.org/1999/xlink" contentStyleType="text/css" height="536px" preserveAspectRatio="none" style="width:1315px;height:536px;background:#FFFFFF;" version="1.1" viewBox="0 0 1315 536" width="1315px" zoomAndPan="magnify"><defs/><g><!--class AppMVC--><g id="elem_AppMVC"><rect codeLine="2" fill="#F1F1F1" height="48" id="AppMVC" rx="2.5" ry="2.5" style="stroke:#181818;stroke-width:0.5;" width="91" x="551" y="481.35"/><ellipse cx="566" cy="497.35" fill="#ADD1B2" rx="11" ry="11" style="stroke:#181818;stroke-width:1.0;"/><path d="M568.9731,502.9931 Q568.3921,503.2919 567.7529,503.4413 Q567.1138,503.5907 566.4082,503.5907 Q563.9014,503.5907 562.5815,501.9389 Q561.2617,500.287 561.2617,497.1659 Q561.2617,494.0365 562.5815,492.3847 Q563.9014,490.7328 566.4082,490.7328 Q567.1138,490.7328 567.7612,490.8822 Q568.4087,491.0316 568.9731,491.3305 L568.9731,494.0531 Q568.3423,493.4721 567.7488,493.2023 Q567.1553,492.9325 566.5244,492.9325 Q565.1797,492.9325 564.4949,493.9992 Q563.8101,495.0658 563.8101,497.1659 Q563.8101,499.2577 564.4949,500.3244 Q565.1797,501.391 566.5244,501.391 Q567.1553,501.391 567.7488,501.1212 Q568.3423,500.8515 568.9731,500.2704 Z " fill="#000000"/><text fill="#000000" font-family="sans-serif" font-size="14" lengthAdjust="spacing" textLength="59" x="580" y="502.641">AppMVC</text><line style="stroke:#181818;stroke-width:0.5;" x1="552" x2="641" y1="513.35" y2="513.35"/><line style="stroke:#181818;stroke-width:0.5;" x1="552" x2="641" y1="521.35" y2="521.35"/></g><!--class Interface (Model)--><g id="elem_Interface (Model)"><rect codeLine="23" fill="#F1F1F1" height="56.6211" id="Interface (Model)" rx="2.5" ry="2.5" style="stroke:#181818;stroke-width:0.5;" width="148" x="179.5" y="364.73"/><ellipse cx="194.5" cy="385.0405" fill="#B4A7E5" rx="11" ry="11" style="stroke:#181818;stroke-width:1.0;"/><path d="M190.4277,380.8057 L190.4277,378.6475 L197.8071,378.6475 L197.8071,380.8057 L195.3418,380.8057 L195.3418,388.8823 L197.8071,388.8823 L197.8071,391.0405 L190.4277,391.0405 L190.4277,388.8823 L192.8931,388.8823 L192.8931,380.8057 Z " fill="#000000"/><text fill="#000000" font-family="sans-serif" font-size="12" font-style="italic" lengthAdjust="spacing" textLength="35" x="249" y="381.3316">&#171;trait&#187;</text><text fill="#000000" font-family="sans-serif" font-size="14" font-style="italic" lengthAdjust="spacing" textLength="116" x="208.5" y="397.398">Interface (Model)</text><line style="stroke:#181818;stroke-width:0.5;" x1="180.5" x2="326.5" y1="405.3511" y2="405.3511"/><line style="stroke:#181818;stroke-width:0.5;" x1="180.5" x2="326.5" y1="413.3511" y2="413.3511"/></g><!--class Interface (View)--><g id="elem_Interface (View)"><rect codeLine="45" fill="#F1F1F1" height="56.6211" id="Interface (View)" rx="2.5" ry="2.5" style="stroke:#181818;stroke-width:0.5;" width="138" x="527.5" y="364.73"/><ellipse cx="542.5" cy="385.0405" fill="#B4A7E5" rx="11" ry="11" style="stroke:#181818;stroke-width:1.0;"/><path d="M538.4277,380.8057 L538.4277,378.6475 L545.8071,378.6475 L545.8071,380.8057 L543.3418,380.8057 L543.3418,388.8823 L545.8071,388.8823 L545.8071,391.0405 L538.4277,391.0405 L538.4277,388.8823 L540.8931,388.8823 L540.8931,380.8057 Z " fill="#000000"/><text fill="#000000" font-family="sans-serif" font-size="12" font-style="italic" lengthAdjust="spacing" textLength="35" x="592" y="381.3316">&#171;trait&#187;</text><text fill="#000000" font-family="sans-serif" font-size="14" font-style="italic" lengthAdjust="spacing" textLength="106" x="556.5" y="397.398">Interface (View)</text><line style="stroke:#181818;stroke-width:0.5;" x1="528.5" x2="664.5" y1="405.3511" y2="405.3511"/><line style="stroke:#181818;stroke-width:0.5;" x1="528.5" x2="664.5" y1="413.3511" y2="413.3511"/></g><!--class Interface (Controller)--><g id="elem_Interface (Controller)"><rect codeLine="67" fill="#F1F1F1" height="56.6211" id="Interface (Controller)" rx="2.5" ry="2.5" style="stroke:#181818;stroke-width:0.5;" width="176" x="853.5" y="364.73"/><ellipse cx="868.5" cy="385.0405" fill="#B4A7E5" rx="11" ry="11" style="stroke:#181818;stroke-width:1.0;"/><path d="M864.4277,380.8057 L864.4277,378.6475 L871.8071,378.6475 L871.8071,380.8057 L869.3418,380.8057 L869.3418,388.8823 L871.8071,388.8823 L871.8071,391.0405 L864.4277,391.0405 L864.4277,388.8823 L866.8931,388.8823 L866.8931,380.8057 Z " fill="#000000"/><text fill="#000000" font-family="sans-serif" font-size="12" font-style="italic" lengthAdjust="spacing" textLength="35" x="937" y="381.3316">&#171;trait&#187;</text><text fill="#000000" font-family="sans-serif" font-size="14" font-style="italic" lengthAdjust="spacing" textLength="144" x="882.5" y="397.398">Interface (Controller)</text><line style="stroke:#181818;stroke-width:0.5;" x1="854.5" x2="1028.5" y1="405.3511" y2="405.3511"/><line style="stroke:#181818;stroke-width:0.5;" x1="854.5" x2="1028.5" y1="413.3511" y2="413.3511"/></g><!--class ModelModule--><g id="elem_ModelModule"><rect codeLine="8" fill="#F1F1F1" height="56.6211" id="ModelModule" rx="2.5" ry="2.5" style="stroke:#181818;stroke-width:0.5;" width="125" x="74" y="140.11"/><ellipse cx="89" cy="160.4205" fill="#B4A7E5" rx="11" ry="11" style="stroke:#181818;stroke-width:1.0;"/><path d="M84.9277,156.1857 L84.9277,154.0275 L92.3071,154.0275 L92.3071,156.1857 L89.8418,156.1857 L89.8418,164.2623 L92.3071,164.2623 L92.3071,166.4205 L84.9277,166.4205 L84.9277,164.2623 L87.3931,164.2623 L87.3931,156.1857 Z " fill="#000000"/><text fill="#000000" font-family="sans-serif" font-size="12" font-style="italic" lengthAdjust="spacing" textLength="35" x="132" y="156.7116">&#171;trait&#187;</text><text fill="#000000" font-family="sans-serif" font-size="14" font-style="italic" lengthAdjust="spacing" textLength="93" x="103" y="172.778">ModelModule</text><line style="stroke:#181818;stroke-width:0.5;" x1="75" x2="198" y1="180.7311" y2="180.7311"/><line style="stroke:#181818;stroke-width:0.5;" x1="75" x2="198" y1="188.7311" y2="188.7311"/></g><!--class Provider (Model)--><g id="elem_Provider (Model)"><rect codeLine="10" fill="#F1F1F1" height="73.1094" id="Provider (Model)" rx="2.5" ry="2.5" style="stroke:#181818;stroke-width:0.5;" width="145" x="7" y="7"/><ellipse cx="22" cy="27.3105" fill="#B4A7E5" rx="11" ry="11" style="stroke:#181818;stroke-width:1.0;"/><path d="M17.9277,23.0757 L17.9277,20.9175 L25.3071,20.9175 L25.3071,23.0757 L22.8418,23.0757 L22.8418,31.1523 L25.3071,31.1523 L25.3071,33.3105 L17.9277,33.3105 L17.9277,31.1523 L20.3931,31.1523 L20.3931,23.0757 Z " fill="#000000"/><text fill="#000000" font-family="sans-serif" font-size="12" font-style="italic" lengthAdjust="spacing" textLength="35" x="75" y="23.6016">&#171;trait&#187;</text><text fill="#000000" font-family="sans-serif" font-size="14" font-style="italic" lengthAdjust="spacing" textLength="113" x="36" y="39.668">Provider (Model)</text><line style="stroke:#181818;stroke-width:0.5;" x1="8" x2="151" y1="47.6211" y2="47.6211"/><text fill="#000000" font-family="sans-serif" font-size="14" lengthAdjust="spacing" textLength="126" x="13" y="65.1563">model: ModelType</text><line style="stroke:#181818;stroke-width:0.5;" x1="8" x2="151" y1="72.1094" y2="72.1094"/></g><!--class AppModelModule--><g id="elem_AppModelModule"><rect codeLine="16" fill="#F1F1F1" height="48" id="AppModelModule" rx="2.5" ry="2.5" style="stroke:#181818;stroke-width:0.5;" width="153" x="112" y="256.73"/><ellipse cx="127" cy="272.73" fill="#ADD1B2" rx="11" ry="11" style="stroke:#181818;stroke-width:1.0;"/><path d="M129.9731,278.3731 Q129.3921,278.6719 128.7529,278.8213 Q128.1138,278.9707 127.4082,278.9707 Q124.9014,278.9707 123.5815,277.3189 Q122.2617,275.667 122.2617,272.5459 Q122.2617,269.4165 123.5815,267.7647 Q124.9014,266.1128 127.4082,266.1128 Q128.1138,266.1128 128.7612,266.2622 Q129.4087,266.4116 129.9731,266.7105 L129.9731,269.4331 Q129.3423,268.8521 128.7488,268.5823 Q128.1553,268.3125 127.5244,268.3125 Q126.1797,268.3125 125.4949,269.3792 Q124.8101,270.4458 124.8101,272.5459 Q124.8101,274.6377 125.4949,275.7044 Q126.1797,276.771 127.5244,276.771 Q128.1553,276.771 128.7488,276.5012 Q129.3423,276.2315 129.9731,275.6504 Z " fill="#000000"/><text fill="#000000" font-family="sans-serif" font-size="14" lengthAdjust="spacing" textLength="121" x="141" y="278.021">AppModelModule</text><line style="stroke:#181818;stroke-width:0.5;" x1="113" x2="264" y1="288.73" y2="288.73"/><line style="stroke:#181818;stroke-width:0.5;" x1="113" x2="264" y1="296.73" y2="296.73"/></g><!--class Component (Model)--><g id="elem_Component (Model)"><rect codeLine="19" fill="#F1F1F1" height="56.6211" id="Component (Model)" rx="2.5" ry="2.5" style="stroke:#181818;stroke-width:0.5;" width="169" x="234" y="140.11"/><ellipse cx="249" cy="160.4205" fill="#B4A7E5" rx="11" ry="11" style="stroke:#181818;stroke-width:1.0;"/><path d="M244.9277,156.1857 L244.9277,154.0275 L252.3071,154.0275 L252.3071,156.1857 L249.8418,156.1857 L249.8418,164.2623 L252.3071,164.2623 L252.3071,166.4205 L244.9277,166.4205 L244.9277,164.2623 L247.3931,164.2623 L247.3931,156.1857 Z " fill="#000000"/><text fill="#000000" font-family="sans-serif" font-size="12" font-style="italic" lengthAdjust="spacing" textLength="35" x="314" y="156.7116">&#171;trait&#187;</text><text fill="#000000" font-family="sans-serif" font-size="14" font-style="italic" lengthAdjust="spacing" textLength="137" x="263" y="172.778">Component (Model)</text><line style="stroke:#181818;stroke-width:0.5;" x1="235" x2="402" y1="180.7311" y2="180.7311"/><line style="stroke:#181818;stroke-width:0.5;" x1="235" x2="402" y1="188.7311" y2="188.7311"/></g><!--class ViewModule--><g id="elem_ViewModule"><rect codeLine="30" fill="#F1F1F1" height="56.6211" id="ViewModule" rx="2.5" ry="2.5" style="stroke:#181818;stroke-width:0.5;" width="115" x="508" y="140.11"/><ellipse cx="523" cy="160.4205" fill="#B4A7E5" rx="11" ry="11" style="stroke:#181818;stroke-width:1.0;"/><path d="M518.9277,156.1857 L518.9277,154.0275 L526.3071,154.0275 L526.3071,156.1857 L523.8418,156.1857 L523.8418,164.2623 L526.3071,164.2623 L526.3071,166.4205 L518.9277,166.4205 L518.9277,164.2623 L521.3931,164.2623 L521.3931,156.1857 Z " fill="#000000"/><text fill="#000000" font-family="sans-serif" font-size="12" font-style="italic" lengthAdjust="spacing" textLength="35" x="561" y="156.7116">&#171;trait&#187;</text><text fill="#000000" font-family="sans-serif" font-size="14" font-style="italic" lengthAdjust="spacing" textLength="83" x="537" y="172.778">ViewModule</text><line style="stroke:#181818;stroke-width:0.5;" x1="509" x2="622" y1="180.7311" y2="180.7311"/><line style="stroke:#181818;stroke-width:0.5;" x1="509" x2="622" y1="188.7311" y2="188.7311"/></g><!--class Provider (View)--><g id="elem_Provider (View)"><rect codeLine="32" fill="#F1F1F1" height="73.1094" id="Provider (View)" rx="2.5" ry="2.5" style="stroke:#181818;stroke-width:0.5;" width="135" x="443" y="7"/><ellipse cx="458" cy="27.3105" fill="#B4A7E5" rx="11" ry="11" style="stroke:#181818;stroke-width:1.0;"/><path d="M453.9277,23.0757 L453.9277,20.9175 L461.3071,20.9175 L461.3071,23.0757 L458.8418,23.0757 L458.8418,31.1523 L461.3071,31.1523 L461.3071,33.3105 L453.9277,33.3105 L453.9277,31.1523 L456.3931,31.1523 L456.3931,23.0757 Z " fill="#000000"/><text fill="#000000" font-family="sans-serif" font-size="12" font-style="italic" lengthAdjust="spacing" textLength="35" x="506" y="23.6016">&#171;trait&#187;</text><text fill="#000000" font-family="sans-serif" font-size="14" font-style="italic" lengthAdjust="spacing" textLength="103" x="472" y="39.668">Provider (View)</text><line style="stroke:#181818;stroke-width:0.5;" x1="444" x2="577" y1="47.6211" y2="47.6211"/><text fill="#000000" font-family="sans-serif" font-size="14" lengthAdjust="spacing" textLength="103" x="449" y="65.1563">view: ViewType</text><line style="stroke:#181818;stroke-width:0.5;" x1="444" x2="577" y1="72.1094" y2="72.1094"/></g><!--class AppViewModule--><g id="elem_AppViewModule"><rect codeLine="38" fill="#F1F1F1" height="48" id="AppViewModule" rx="2.5" ry="2.5" style="stroke:#181818;stroke-width:0.5;" width="143" x="525" y="256.73"/><ellipse cx="540" cy="272.73" fill="#ADD1B2" rx="11" ry="11" style="stroke:#181818;stroke-width:1.0;"/><path d="M542.9731,278.3731 Q542.3921,278.6719 541.7529,278.8213 Q541.1138,278.9707 540.4082,278.9707 Q537.9014,278.9707 536.5815,277.3189 Q535.2617,275.667 535.2617,272.5459 Q535.2617,269.4165 536.5815,267.7647 Q537.9014,266.1128 540.4082,266.1128 Q541.1138,266.1128 541.7612,266.2622 Q542.4087,266.4116 542.9731,266.7105 L542.9731,269.4331 Q542.3423,268.8521 541.7488,268.5823 Q541.1553,268.3125 540.5244,268.3125 Q539.1797,268.3125 538.4949,269.3792 Q537.8101,270.4458 537.8101,272.5459 Q537.8101,274.6377 538.4949,275.7044 Q539.1797,276.771 540.5244,276.771 Q541.1553,276.771 541.7488,276.5012 Q542.3423,276.2315 542.9731,275.6504 Z " fill="#000000"/><text fill="#000000" font-family="sans-serif" font-size="14" lengthAdjust="spacing" textLength="111" x="554" y="278.021">AppViewModule</text><line style="stroke:#181818;stroke-width:0.5;" x1="526" x2="667" y1="288.73" y2="288.73"/><line style="stroke:#181818;stroke-width:0.5;" x1="526" x2="667" y1="296.73" y2="296.73"/></g><!--class Component (View)--><g id="elem_Component (View)"><rect codeLine="41" fill="#F1F1F1" height="56.6211" id="Component (View)" rx="2.5" ry="2.5" style="stroke:#181818;stroke-width:0.5;" width="159" x="658" y="140.11"/><ellipse cx="673" cy="160.4205" fill="#B4A7E5" rx="11" ry="11" style="stroke:#181818;stroke-width:1.0;"/><path d="M668.9277,156.1857 L668.9277,154.0275 L676.3071,154.0275 L676.3071,156.1857 L673.8418,156.1857 L673.8418,164.2623 L676.3071,164.2623 L676.3071,166.4205 L668.9277,166.4205 L668.9277,164.2623 L671.3931,164.2623 L671.3931,156.1857 Z " fill="#000000"/><text fill="#000000" font-family="sans-serif" font-size="12" font-style="italic" lengthAdjust="spacing" textLength="35" x="733" y="156.7116">&#171;trait&#187;</text><text fill="#000000" font-family="sans-serif" font-size="14" font-style="italic" lengthAdjust="spacing" textLength="127" x="687" y="172.778">Component (View)</text><line style="stroke:#181818;stroke-width:0.5;" x1="659" x2="816" y1="180.7311" y2="180.7311"/><line style="stroke:#181818;stroke-width:0.5;" x1="659" x2="816" y1="188.7311" y2="188.7311"/></g><!--class ControllerModule--><g id="elem_ControllerModule"><rect codeLine="52" fill="#F1F1F1" height="56.6211" id="ControllerModule" rx="2.5" ry="2.5" style="stroke:#181818;stroke-width:0.5;" width="153" x="923" y="140.11"/><ellipse cx="938" cy="160.4205" fill="#B4A7E5" rx="11" ry="11" style="stroke:#181818;stroke-width:1.0;"/><path d="M933.9277,156.1857 L933.9277,154.0275 L941.3071,154.0275 L941.3071,156.1857 L938.8418,156.1857 L938.8418,164.2623 L941.3071,164.2623 L941.3071,166.4205 L933.9277,166.4205 L933.9277,164.2623 L936.3931,164.2623 L936.3931,156.1857 Z " fill="#000000"/><text fill="#000000" font-family="sans-serif" font-size="12" font-style="italic" lengthAdjust="spacing" textLength="35" x="995" y="156.7116">&#171;trait&#187;</text><text fill="#000000" font-family="sans-serif" font-size="14" font-style="italic" lengthAdjust="spacing" textLength="121" x="952" y="172.778">ControllerModule</text><line style="stroke:#181818;stroke-width:0.5;" x1="924" x2="1075" y1="180.7311" y2="180.7311"/><line style="stroke:#181818;stroke-width:0.5;" x1="924" x2="1075" y1="188.7311" y2="188.7311"/></g><!--class Provider (Controller)--><g id="elem_Provider (Controller)"><rect codeLine="54" fill="#F1F1F1" height="73.1094" id="Provider (Controller)" rx="2.5" ry="2.5" style="stroke:#181818;stroke-width:0.5;" width="190" x="839.5" y="7"/><ellipse cx="862.15" cy="27.3105" fill="#B4A7E5" rx="11" ry="11" style="stroke:#181818;stroke-width:1.0;"/><path d="M858.0777,23.0757 L858.0777,20.9175 L865.4571,20.9175 L865.4571,23.0757 L862.9918,23.0757 L862.9918,31.1523 L865.4571,31.1523 L865.4571,33.3105 L858.0777,33.3105 L858.0777,31.1523 L860.5431,31.1523 L860.5431,23.0757 Z " fill="#000000"/><text fill="#000000" font-family="sans-serif" font-size="12" font-style="italic" lengthAdjust="spacing" textLength="35" x="930.85" y="23.6016">&#171;trait&#187;</text><text fill="#000000" font-family="sans-serif" font-size="14" font-style="italic" lengthAdjust="spacing" textLength="141" x="877.85" y="39.668">Provider (Controller)</text><line style="stroke:#181818;stroke-width:0.5;" x1="840.5" x2="1028.5" y1="47.6211" y2="47.6211"/><text fill="#000000" font-family="sans-serif" font-size="14" lengthAdjust="spacing" textLength="178" x="845.5" y="65.1563">controller: ControllerType</text><line style="stroke:#181818;stroke-width:0.5;" x1="840.5" x2="1028.5" y1="72.1094" y2="72.1094"/></g><!--class AppControllerModule--><g id="elem_AppControllerModule"><rect codeLine="60" fill="#F1F1F1" height="48" id="AppControllerModule" rx="2.5" ry="2.5" style="stroke:#181818;stroke-width:0.5;" width="181" x="923" y="256.73"/><ellipse cx="938" cy="272.73" fill="#ADD1B2" rx="11" ry="11" style="stroke:#181818;stroke-width:1.0;"/><path d="M940.9731,278.3731 Q940.3921,278.6719 939.7529,278.8213 Q939.1138,278.9707 938.4082,278.9707 Q935.9014,278.9707 934.5815,277.3189 Q933.2617,275.667 933.2617,272.5459 Q933.2617,269.4165 934.5815,267.7647 Q935.9014,266.1128 938.4082,266.1128 Q939.1138,266.1128 939.7612,266.2622 Q940.4087,266.4116 940.9731,266.7105 L940.9731,269.4331 Q940.3423,268.8521 939.7488,268.5823 Q939.1553,268.3125 938.5244,268.3125 Q937.1797,268.3125 936.4949,269.3792 Q935.8101,270.4458 935.8101,272.5459 Q935.8101,274.6377 936.4949,275.7044 Q937.1797,276.771 938.5244,276.771 Q939.1553,276.771 939.7488,276.5012 Q940.3423,276.2315 940.9731,275.6504 Z " fill="#000000"/><text fill="#000000" font-family="sans-serif" font-size="14" lengthAdjust="spacing" textLength="149" x="952" y="278.021">AppControllerModule</text><line style="stroke:#181818;stroke-width:0.5;" x1="924" x2="1103" y1="288.73" y2="288.73"/><line style="stroke:#181818;stroke-width:0.5;" x1="924" x2="1103" y1="296.73" y2="296.73"/></g><!--class Component (Controller)--><g id="elem_Component (Controller)"><rect codeLine="63" fill="#F1F1F1" height="56.6211" id="Component (Controller)" rx="2.5" ry="2.5" style="stroke:#181818;stroke-width:0.5;" width="197" x="1111" y="140.11"/><ellipse cx="1126" cy="160.4205" fill="#B4A7E5" rx="11" ry="11" style="stroke:#181818;stroke-width:1.0;"/><path d="M1121.9277,156.1857 L1121.9277,154.0275 L1129.3071,154.0275 L1129.3071,156.1857 L1126.8418,156.1857 L1126.8418,164.2623 L1129.3071,164.2623 L1129.3071,166.4205 L1121.9277,166.4205 L1121.9277,164.2623 L1124.3931,164.2623 L1124.3931,156.1857 Z " fill="#000000"/><text fill="#000000" font-family="sans-serif" font-size="12" font-style="italic" lengthAdjust="spacing" textLength="35" x="1205" y="156.7116">&#171;trait&#187;</text><text fill="#000000" font-family="sans-serif" font-size="14" font-style="italic" lengthAdjust="spacing" textLength="165" x="1140" y="172.778">Component (Controller)</text><line style="stroke:#181818;stroke-width:0.5;" x1="1112" x2="1307" y1="180.7311" y2="180.7311"/><line style="stroke:#181818;stroke-width:0.5;" x1="1112" x2="1307" y1="188.7311" y2="188.7311"/></g><!--reverse link Interface (Model) to AppMVC--><g id="link_Interface (Model)_AppMVC"><path codeLine="3" d="M345.066,423.4897 C412.836,445.2797 493.64,471.27 550.62,489.59 " fill="none" id="Interface (Model)-backto-AppMVC" style="stroke:#181818;stroke-width:1.0;"/><polygon fill="none" points="327.93,417.98,343.2294,429.2017,346.9026,417.7777,327.93,417.98" style="stroke:#181818;stroke-width:1.0;"/></g><!--reverse link Interface (View) to AppMVC--><g id="link_Interface (View)_AppMVC"><path codeLine="4" d="M596.5,439.59 C596.5,457.84 596.5,463.53 596.5,480.88 " fill="none" id="Interface (View)-backto-AppMVC" style="stroke:#181818;stroke-width:1.0;"/><polygon fill="none" points="596.5,421.59,590.5,439.59,602.5,439.59,596.5,421.59" style="stroke:#181818;stroke-width:1.0;"/></g><!--reverse link Interface (Controller) to AppMVC--><g id="link_Interface (Controller)_AppMVC"><path codeLine="5" d="M837.7449,427.2113 C770.2749,448.7813 696.43,472.4 642.37,489.68 " fill="none" id="Interface (Controller)-backto-AppMVC" style="stroke:#181818;stroke-width:1.0;"/><polygon fill="none" points="854.89,421.73,835.9178,421.4962,839.5719,432.9263,854.89,421.73" style="stroke:#181818;stroke-width:1.0;"/></g><!--link Provider (Model) to ModelModule--><g id="link_Provider (Model)_ModelModule"><path codeLine="14" d="M96.14,80.42 C104.95,99.4 110.5381,111.4652 118.6881,129.0252 " fill="none" id="Provider (Model)-to-ModelModule" style="stroke:#181818;stroke-width:1.0;"/><polygon fill="#181818" points="123.74,139.91,124.8423,132.7836,118.6881,129.0252,117.5858,136.1516,123.74,139.91" style="stroke:#181818;stroke-width:1.0;"/></g><!--reverse link ModelModule to AppModelModule--><g id="link_ModelModule_AppModelModule"><path d="M157.1629,213.2527 C165.7629,231.5027 169.26,238.91 177.44,256.26 " fill="none" id="ModelModule-backto-AppModelModule" style="stroke:#181818;stroke-width:1.0;"/><polygon fill="none" points="149.49,196.97,151.7354,215.8103,162.5905,210.695,149.49,196.97" style="stroke:#181818;stroke-width:1.0;"/></g><!--link Component (Model) to AppModelModule--><g id="link_Component (Model)_AppModelModule"><path codeLine="21" d="M286.03,196.97 C264.52,215.22 245.7604,231.1467 225.3104,248.4967 " fill="none" id="Component (Model)-to-AppModelModule" style="stroke:#181818;stroke-width:1.0;"/><polygon fill="#181818" points="216.16,256.26,223.323,255.4285,225.3104,248.4967,218.1474,249.3282,216.16,256.26" style="stroke:#181818;stroke-width:1.0;"/></g><!--reverse link Provider (Model) to Interface (Model)--><g id="link_Provider (Model)_Interface (Model)"><path codeLine="24" d="M64.0419,97.8715 C59.2619,115.6315 58.87,120.11 56.5,140.11 C47.65,214.67 45.93,247.47 94.5,304.73 C116.91,331.15 149.42,350.98 179.21,365.01 " fill="none" id="Provider (Model)-backto-Interface (Model)" style="stroke:#181818;stroke-width:1.0;"/><polygon fill="none" points="68.72,80.49,58.2481,96.3121,69.8357,99.4308,68.72,80.49" style="stroke:#181818;stroke-width:1.0;"/></g><!--reverse link Component (Model) to Interface (Model)--><g id="link_Component (Model)_Interface (Model)"><path codeLine="25" d="M307.2844,214.4851 C300.3744,241.9251 293.57,267.7 282.5,304.73 C276.51,324.78 269.06,347.17 263.21,364.26 " fill="none" id="Component (Model)-backto-Interface (Model)" style="stroke:#181818;stroke-width:1.0;"/><polygon fill="none" points="311.68,197.03,301.4661,213.0199,313.1028,215.9502,311.68,197.03" style="stroke:#181818;stroke-width:1.0;"/></g><!--reverse link AppModelModule to Interface (Model)--><g id="link_AppModelModule_Interface (Model)"><path codeLine="27" d="M208.3757,315.4565 C218.5957,332.7865 226.45,346.13 237.21,364.39 " fill="none" id="AppModelModule-backto-Interface (Model)" style="stroke:#181818;stroke-width:1.0;"/><polygon fill="#181818" points="202.28,305.12,201.8824,312.3201,208.3757,315.4565,208.7733,308.2563,202.28,305.12" style="stroke:#181818;stroke-width:1.0;"/></g><!--link Provider (View) to ViewModule--><g id="link_Provider (View)_ViewModule"><path codeLine="36" d="M526.56,80.42 C535.05,99.4 540.4274,111.3972 548.2874,128.9572 " fill="none" id="Provider (View)-to-ViewModule" style="stroke:#181818;stroke-width:1.0;"/><polygon fill="#181818" points="553.19,139.91,554.3897,132.7994,548.2874,128.9572,547.0878,136.0678,553.19,139.91" style="stroke:#181818;stroke-width:1.0;"/></g><!--reverse link ViewModule to AppViewModule--><g id="link_ViewModule_AppViewModule"><path d="M578.1109,214.2984 C583.2409,232.5484 585.03,238.91 589.9,256.26 " fill="none" id="ViewModule-backto-AppViewModule" style="stroke:#181818;stroke-width:1.0;"/><polygon fill="none" points="573.24,196.97,572.3348,215.9221,583.8871,212.6748,573.24,196.97" style="stroke:#181818;stroke-width:1.0;"/></g><!--link Component (View) to AppViewModule--><g id="link_Component (View)_AppViewModule"><path codeLine="43" d="M702.28,196.97 C678.95,215.22 658.1318,231.5165 635.9518,248.8665 " fill="none" id="Component (View)-to-AppViewModule" style="stroke:#181818;stroke-width:1.0;"/><polygon fill="#181818" points="626.5,256.26,633.6904,255.7138,635.9518,248.8665,628.7614,249.4127,626.5,256.26" style="stroke:#181818;stroke-width:1.0;"/></g><!--reverse link Provider (View) to Interface (View)--><g id="link_Provider (View)_Interface (View)"><path codeLine="46" d="M495.7495,97.6388 C482.5895,150.0888 470.17,232.24 507.5,304.73 C519.49,328.01 540.03,348.79 558.36,364.23 " fill="none" id="Provider (View)-backto-Interface (View)" style="stroke:#181818;stroke-width:1.0;"/><polygon fill="none" points="500.13,80.18,489.9299,96.1787,501.5691,99.099,500.13,80.18" style="stroke:#181818;stroke-width:1.0;"/></g><!--reverse link Component (View) to Interface (View)--><g id="link_Component (View)_Interface (View)"><path codeLine="47" d="M725.8584,214.315 C717.9384,242.865 707.87,270.65 685.5,304.73 C670.77,327.17 649.43,348.35 631.34,364.23 " fill="none" id="Component (View)-backto-Interface (View)" style="stroke:#181818;stroke-width:1.0;"/><polygon fill="none" points="730.67,196.97,720.0767,212.7111,731.64,215.9189,730.67,196.97" style="stroke:#181818;stroke-width:1.0;"/></g><!--reverse link AppViewModule to Interface (View)--><g id="link_AppViewModule_Interface (View)"><path codeLine="49" d="M596.5,317.12 C596.5,334.45 596.5,346.13 596.5,364.39 " fill="none" id="AppViewModule-backto-Interface (View)" style="stroke:#181818;stroke-width:1.0;"/><polygon fill="#181818" points="596.5,305.12,592.5,311.12,596.5,317.12,600.5,311.12,596.5,305.12" style="stroke:#181818;stroke-width:1.0;"/></g><!--link Provider (Controller) to ControllerModule--><g id="link_Provider (Controller)_ControllerModule"><path codeLine="58" d="M953.48,80.42 C963.52,99.4 970.0484,111.7429 979.3384,129.3029 " fill="none" id="Provider (Controller)-to-ControllerModule" style="stroke:#181818;stroke-width:1.0;"/><polygon fill="#181818" points="984.95,139.91,985.6799,132.7359,979.3384,129.3029,978.6085,136.477,984.95,139.91" style="stroke:#181818;stroke-width:1.0;"/></g><!--reverse link ControllerModule to AppControllerModule--><g id="link_ControllerModule_AppControllerModule"><path d="M1005.2603,214.8275 C1007.5703,233.0775 1008.32,238.91 1010.52,256.26 " fill="none" id="ControllerModule-backto-AppControllerModule" style="stroke:#181818;stroke-width:1.0;"/><polygon fill="none" points="1003,196.97,999.3078,215.581,1011.2128,214.0741,1003,196.97" style="stroke:#181818;stroke-width:1.0;"/></g><!--link Component (Controller) to AppControllerModule--><g id="link_Component (Controller)_AppControllerModule"><path codeLine="65" d="M1160.29,197.11 C1127.86,215.36 1096.3164,233.1123 1065.5564,250.4323 " fill="none" id="Component (Controller)-to-AppControllerModule" style="stroke:#181818;stroke-width:1.0;"/><polygon fill="#181818" points="1055.1,256.32,1062.2907,256.8616,1065.5564,250.4323,1058.3656,249.8907,1055.1,256.32" style="stroke:#181818;stroke-width:1.0;"/></g><!--reverse link Provider (Controller) to Interface (Controller)--><g id="link_Provider (Controller)_Interface (Controller)"><path codeLine="68" d="M915.127,97.3223 C909.107,115.0323 908.5,119.87 905.5,140.11 C894.76,212.48 891.28,232.96 905.5,304.73 C909.64,325.64 918.86,347.83 926.93,364.6 " fill="none" id="Provider (Controller)-backto-Interface (Controller)" style="stroke:#181818;stroke-width:1.0;"/><polygon fill="none" points="920.92,80.28,909.4462,95.3913,920.8077,99.2533,920.92,80.28" style="stroke:#181818;stroke-width:1.0;"/></g><!--reverse link Component (Controller) to Interface (Controller)--><g id="link_Component (Controller)_Interface (Controller)"><path codeLine="69" d="M1189.3254,213.151 C1174.8454,242.961 1156.17,274.14 1121.5,304.73 C1092.59,330.23 1054.91,350.04 1021.5,364.29 " fill="none" id="Component (Controller)-backto-Interface (Controller)" style="stroke:#181818;stroke-width:1.0;"/><polygon fill="none" points="1197.19,196.96,1183.9284,210.5294,1194.7223,215.7725,1197.19,196.96" style="stroke:#181818;stroke-width:1.0;"/></g><!--reverse link AppControllerModule to Interface (Controller)--><g id="link_AppControllerModule_Interface (Controller)"><path codeLine="71" d="M991.6716,315.1693 C980.3616,332.4993 971.47,346.13 959.55,364.39 " fill="none" id="AppControllerModule-backto-Interface (Controller)" style="stroke:#181818;stroke-width:1.0;"/><polygon fill="#181818" points="998.23,305.12,991.6011,307.9585,991.6716,315.1693,998.3006,312.3308,998.23,305.12" style="stroke:#181818;stroke-width:1.0;"/></g><!--SRC=[ZPF1QeD048RlynI35rl15n0954yz17eekOjkGJ2kh9kq9UsxrpLLPzPPoIM7cTd__sU-MBNbCE1BtnzF1KIldLNcewmKFXrrhThd2FEVD9NwfqPzxhGBtLcZsrOPRmXYdAGnXcOPdohZpwLLcEVMb8qz780CH6z6NvjQ6H9idiCR89vTDRiBlN_t2du1X4Tfcb0pW6hPdqHGNrPrzS1YtPmY2LJeSwyxrLaXqMWjj9qtDsA2qkqNGMb_TrJXbUWT70PlzIGq5wCZpgYvmeFGvdyBOtOTYzca8X3xV-6EjleGNiHynaLAExJyA1mMiMKc8LGRDM5f__RtkcGR6WM-S1AOYd7zx1YfjVmWB_xvCchLqig8ha2GQRY3-Ya8pKt0cUcciKDM3itvRa89vY7M0VtWsNoOj1iEjVyCf6CbUo_-0000]--></g></svg>