<?xml version="1.0" encoding="us-ascii" standalone="no"?><svg xmlns="http://www.w3.org/2000/svg" xmlns:xlink="http://www.w3.org/1999/xlink" contentStyleType="text/css" height="551px" preserveAspectRatio="none" style="width:1251px;height:551px;background:#FFFFFF;" version="1.1" viewBox="0 0 1251 551" width="1251px" zoomAndPan="magnify"><defs/><g><!--class AppMVC--><g id="elem_AppMVC"><rect codeLine="2" fill="#F1F1F1" height="48" id="AppMVC" rx="2.5" ry="2.5" style="stroke:#181818;stroke-width:0.5;" width="87" x="528" y="496"/><ellipse cx="543" cy="512" fill="#ADD1B2" rx="11" ry="11" style="stroke:#181818;stroke-width:1.0;"/><path d="M545.7656,507.875 Q545.9219,507.6563 546.1094,507.5469 Q546.2969,507.4375 546.5156,507.4375 Q546.8906,507.4375 547.125,507.7031 Q547.3594,507.9531 547.3594,508.5625 L547.3594,510.0156 Q547.3594,510.625 547.125,510.8906 Q546.8906,511.1563 546.5156,511.1563 Q546.1719,511.1563 545.9688,510.9531 Q545.7656,510.7656 545.6563,510.25 Q545.6094,509.8906 545.4219,509.7031 Q545.0938,509.3281 544.4844,509.1094 Q543.875,508.8906 543.25,508.8906 Q542.4844,508.8906 541.8438,509.2188 Q541.2188,509.5469 540.7188,510.2969 Q540.2344,511.0469 540.2344,512.0781 L540.2344,513.1719 Q540.2344,514.4063 541.125,515.2344 Q542.0156,516.0469 543.6094,516.0469 Q544.5469,516.0469 545.2031,515.7969 Q545.5938,515.6406 546.0156,515.2031 Q546.2813,514.9375 546.4219,514.8594 Q546.5781,514.7813 546.7813,514.7813 Q547.1094,514.7813 547.3594,515.0469 Q547.625,515.2969 547.625,515.6406 Q547.625,515.9844 547.2813,516.3906 Q546.7813,516.9688 545.9844,517.2969 Q544.9063,517.75 543.6094,517.75 Q542.0938,517.75 540.8906,517.125 Q539.9063,516.625 539.2188,515.5625 Q538.5313,514.4844 538.5313,513.2031 L538.5313,512.0469 Q538.5313,510.7188 539.1406,509.5781 Q539.7656,508.4219 540.8594,507.8125 Q541.9531,507.1875 543.1875,507.1875 Q543.9219,507.1875 544.5625,507.3594 Q545.2188,507.5156 545.7656,507.875 Z " fill="#000000"/><text fill="#000000" font-family="sans-serif" font-size="14" lengthAdjust="spacing" textLength="55" x="557" y="517.7969">AppMVC</text><line style="stroke:#181818;stroke-width:0.5;" x1="529" x2="614" y1="528" y2="528"/><line style="stroke:#181818;stroke-width:0.5;" x1="529" x2="614" y1="536" y2="536"/></g><!--class Interface (Model)--><g id="elem_Interface (Model)"><rect codeLine="26" fill="#F1F1F1" height="60.582" id="Interface (Model)" rx="2.5" ry="2.5" style="stroke:#181818;stroke-width:0.5;" width="141" x="172" y="375"/><ellipse cx="187" cy="397.291" fill="#B4A7E5" rx="11" ry="11" style="stroke:#181818;stroke-width:1.0;"/><path d="M187.9531,393.9316 L187.9531,400.5879 L189.6719,400.5879 Q190.2813,400.5879 190.5469,400.8223 Q190.8125,401.0566 190.8125,401.4473 Q190.8125,401.8223 190.5469,402.0566 Q190.2813,402.291 189.6719,402.291 L184.5313,402.291 Q183.9219,402.291 183.6563,402.0566 Q183.3906,401.8223 183.3906,401.4316 Q183.3906,401.0566 183.6563,400.8223 Q183.9219,400.5879 184.5313,400.5879 L186.25,400.5879 L186.25,393.9316 L184.5313,393.9316 Q183.9219,393.9316 183.6563,393.6973 Q183.3906,393.4629 183.3906,393.0723 Q183.3906,392.6973 183.6563,392.4629 Q183.9219,392.2285 184.5313,392.2285 L189.6719,392.2285 Q190.2813,392.2285 190.5469,392.4629 Q190.8125,392.6973 190.8125,393.0723 Q190.8125,393.4629 190.5469,393.6973 Q190.2813,393.9316 189.6719,393.9316 L187.9531,393.9316 Z " fill="#000000"/><text fill="#000000" font-family="sans-serif" font-size="12" font-style="italic" lengthAdjust="spacing" textLength="34" x="238.5" y="392.9492">&#171;trait&#187;</text><text fill="#000000" font-family="sans-serif" font-size="14" font-style="italic" lengthAdjust="spacing" textLength="109" x="201" y="411.0684">Interface (Model)</text><line style="stroke:#181818;stroke-width:0.5;" x1="173" x2="312" y1="419.582" y2="419.582"/><line style="stroke:#181818;stroke-width:0.5;" x1="173" x2="312" y1="427.582" y2="427.582"/></g><!--class Interface (View)--><g id="elem_Interface (View)"><rect codeLine="48" fill="#F1F1F1" height="60.582" id="Interface (View)" rx="2.5" ry="2.5" style="stroke:#181818;stroke-width:0.5;" width="131" x="506" y="375"/><ellipse cx="521" cy="397.291" fill="#B4A7E5" rx="11" ry="11" style="stroke:#181818;stroke-width:1.0;"/><path d="M521.9531,393.9316 L521.9531,400.5879 L523.6719,400.5879 Q524.2813,400.5879 524.5469,400.8223 Q524.8125,401.0566 524.8125,401.4473 Q524.8125,401.8223 524.5469,402.0566 Q524.2813,402.291 523.6719,402.291 L518.5313,402.291 Q517.9219,402.291 517.6563,402.0566 Q517.3906,401.8223 517.3906,401.4316 Q517.3906,401.0566 517.6563,400.8223 Q517.9219,400.5879 518.5313,400.5879 L520.25,400.5879 L520.25,393.9316 L518.5313,393.9316 Q517.9219,393.9316 517.6563,393.6973 Q517.3906,393.4629 517.3906,393.0723 Q517.3906,392.6973 517.6563,392.4629 Q517.9219,392.2285 518.5313,392.2285 L523.6719,392.2285 Q524.2813,392.2285 524.5469,392.4629 Q524.8125,392.6973 524.8125,393.0723 Q524.8125,393.4629 524.5469,393.6973 Q524.2813,393.9316 523.6719,393.9316 L521.9531,393.9316 Z " fill="#000000"/><text fill="#000000" font-family="sans-serif" font-size="12" font-style="italic" lengthAdjust="spacing" textLength="34" x="567.5" y="392.9492">&#171;trait&#187;</text><text fill="#000000" font-family="sans-serif" font-size="14" font-style="italic" lengthAdjust="spacing" textLength="99" x="535" y="411.0684">Interface (View)</text><line style="stroke:#181818;stroke-width:0.5;" x1="507" x2="636" y1="419.582" y2="419.582"/><line style="stroke:#181818;stroke-width:0.5;" x1="507" x2="636" y1="427.582" y2="427.582"/></g><!--class Interface (Controller)--><g id="elem_Interface (Controller)"><rect codeLine="70" fill="#F1F1F1" height="60.582" id="Interface (Controller)" rx="2.5" ry="2.5" style="stroke:#181818;stroke-width:0.5;" width="164" x="819.5" y="375"/><ellipse cx="834.5" cy="397.291" fill="#B4A7E5" rx="11" ry="11" style="stroke:#181818;stroke-width:1.0;"/><path d="M835.4531,393.9316 L835.4531,400.5879 L837.1719,400.5879 Q837.7813,400.5879 838.0469,400.8223 Q838.3125,401.0566 838.3125,401.4473 Q838.3125,401.8223 838.0469,402.0566 Q837.7813,402.291 837.1719,402.291 L832.0313,402.291 Q831.4219,402.291 831.1563,402.0566 Q830.8906,401.8223 830.8906,401.4316 Q830.8906,401.0566 831.1563,400.8223 Q831.4219,400.5879 832.0313,400.5879 L833.75,400.5879 L833.75,393.9316 L832.0313,393.9316 Q831.4219,393.9316 831.1563,393.6973 Q830.8906,393.4629 830.8906,393.0723 Q830.8906,392.6973 831.1563,392.4629 Q831.4219,392.2285 832.0313,392.2285 L837.1719,392.2285 Q837.7813,392.2285 838.0469,392.4629 Q838.3125,392.6973 838.3125,393.0723 Q838.3125,393.4629 838.0469,393.6973 Q837.7813,393.9316 837.1719,393.9316 L835.4531,393.9316 Z " fill="#000000"/><text fill="#000000" font-family="sans-serif" font-size="12" font-style="italic" lengthAdjust="spacing" textLength="34" x="897.5" y="392.9492">&#171;trait&#187;</text><text fill="#000000" font-family="sans-serif" font-size="14" font-style="italic" lengthAdjust="spacing" textLength="132" x="848.5" y="411.0684">Interface (Controller)</text><line style="stroke:#181818;stroke-width:0.5;" x1="820.5" x2="982.5" y1="419.582" y2="419.582"/><line style="stroke:#181818;stroke-width:0.5;" x1="820.5" x2="982.5" y1="427.582" y2="427.582"/></g><!--class ModelModule--><g id="elem_ModelModule"><rect codeLine="11" fill="#F1F1F1" height="60.582" id="ModelModule" rx="2.5" ry="2.5" style="stroke:#181818;stroke-width:0.5;" width="118" x="72.5" y="146"/><ellipse cx="87.5" cy="168.291" fill="#B4A7E5" rx="11" ry="11" style="stroke:#181818;stroke-width:1.0;"/><path d="M88.4531,164.9316 L88.4531,171.5879 L90.1719,171.5879 Q90.7813,171.5879 91.0469,171.8223 Q91.3125,172.0566 91.3125,172.4473 Q91.3125,172.8223 91.0469,173.0566 Q90.7813,173.291 90.1719,173.291 L85.0313,173.291 Q84.4219,173.291 84.1563,173.0566 Q83.8906,172.8223 83.8906,172.4316 Q83.8906,172.0566 84.1563,171.8223 Q84.4219,171.5879 85.0313,171.5879 L86.75,171.5879 L86.75,164.9316 L85.0313,164.9316 Q84.4219,164.9316 84.1563,164.6973 Q83.8906,164.4629 83.8906,164.0723 Q83.8906,163.6973 84.1563,163.4629 Q84.4219,163.2285 85.0313,163.2285 L90.1719,163.2285 Q90.7813,163.2285 91.0469,163.4629 Q91.3125,163.6973 91.3125,164.0723 Q91.3125,164.4629 91.0469,164.6973 Q90.7813,164.9316 90.1719,164.9316 L88.4531,164.9316 Z " fill="#000000"/><text fill="#000000" font-family="sans-serif" font-size="12" font-style="italic" lengthAdjust="spacing" textLength="34" x="127.5" y="163.9492">&#171;trait&#187;</text><text fill="#000000" font-family="sans-serif" font-size="14" font-style="italic" lengthAdjust="spacing" textLength="86" x="101.5" y="182.0684">ModelModule</text><line style="stroke:#181818;stroke-width:0.5;" x1="73.5" x2="189.5" y1="190.582" y2="190.582"/><line style="stroke:#181818;stroke-width:0.5;" x1="73.5" x2="189.5" y1="198.582" y2="198.582"/></g><!--class Provider (Model)--><g id="elem_Provider (Model)"><rect codeLine="13" fill="#F1F1F1" height="79.2031" id="Provider (Model)" rx="2.5" ry="2.5" style="stroke:#181818;stroke-width:0.5;" width="137" x="7" y="7"/><ellipse cx="22" cy="29.291" fill="#B4A7E5" rx="11" ry="11" style="stroke:#181818;stroke-width:1.0;"/><path d="M22.9531,25.9316 L22.9531,32.5879 L24.6719,32.5879 Q25.2813,32.5879 25.5469,32.8223 Q25.8125,33.0566 25.8125,33.4473 Q25.8125,33.8223 25.5469,34.0566 Q25.2813,34.291 24.6719,34.291 L19.5313,34.291 Q18.9219,34.291 18.6563,34.0566 Q18.3906,33.8223 18.3906,33.4316 Q18.3906,33.0566 18.6563,32.8223 Q18.9219,32.5879 19.5313,32.5879 L21.25,32.5879 L21.25,25.9316 L19.5313,25.9316 Q18.9219,25.9316 18.6563,25.6973 Q18.3906,25.4629 18.3906,25.0723 Q18.3906,24.6973 18.6563,24.4629 Q18.9219,24.2285 19.5313,24.2285 L24.6719,24.2285 Q25.2813,24.2285 25.5469,24.4629 Q25.8125,24.6973 25.8125,25.0723 Q25.8125,25.4629 25.5469,25.6973 Q25.2813,25.9316 24.6719,25.9316 L22.9531,25.9316 Z " fill="#000000"/><text fill="#000000" font-family="sans-serif" font-size="12" font-style="italic" lengthAdjust="spacing" textLength="34" x="71.5" y="24.9492">&#171;trait&#187;</text><text fill="#000000" font-family="sans-serif" font-size="14" font-style="italic" lengthAdjust="spacing" textLength="105" x="36" y="43.0684">Provider (Model)</text><line style="stroke:#181818;stroke-width:0.5;" x1="8" x2="143" y1="51.582" y2="51.582"/><text fill="#000000" font-family="sans-serif" font-size="14" lengthAdjust="spacing" textLength="116" x="13" y="70.6895">model: ModelType</text><line style="stroke:#181818;stroke-width:0.5;" x1="8" x2="143" y1="78.2031" y2="78.2031"/></g><!--class AppModelModule--><g id="elem_AppModelModule"><rect codeLine="19" fill="#F1F1F1" height="48" id="AppModelModule" rx="2.5" ry="2.5" style="stroke:#181818;stroke-width:0.5;" width="141" x="110" y="267"/><ellipse cx="125" cy="283" fill="#ADD1B2" rx="11" ry="11" style="stroke:#181818;stroke-width:1.0;"/><path d="M127.7656,278.875 Q127.9219,278.6563 128.1094,278.5469 Q128.2969,278.4375 128.5156,278.4375 Q128.8906,278.4375 129.125,278.7031 Q129.3594,278.9531 129.3594,279.5625 L129.3594,281.0156 Q129.3594,281.625 129.125,281.8906 Q128.8906,282.1563 128.5156,282.1563 Q128.1719,282.1563 127.9688,281.9531 Q127.7656,281.7656 127.6563,281.25 Q127.6094,280.8906 127.4219,280.7031 Q127.0938,280.3281 126.4844,280.1094 Q125.875,279.8906 125.25,279.8906 Q124.4844,279.8906 123.8438,280.2188 Q123.2188,280.5469 122.7188,281.2969 Q122.2344,282.0469 122.2344,283.0781 L122.2344,284.1719 Q122.2344,285.4063 123.125,286.2344 Q124.0156,287.0469 125.6094,287.0469 Q126.5469,287.0469 127.2031,286.7969 Q127.5938,286.6406 128.0156,286.2031 Q128.2813,285.9375 128.4219,285.8594 Q128.5781,285.7813 128.7813,285.7813 Q129.1094,285.7813 129.3594,286.0469 Q129.625,286.2969 129.625,286.6406 Q129.625,286.9844 129.2813,287.3906 Q128.7813,287.9688 127.9844,288.2969 Q126.9063,288.75 125.6094,288.75 Q124.0938,288.75 122.8906,288.125 Q121.9063,287.625 121.2188,286.5625 Q120.5313,285.4844 120.5313,284.2031 L120.5313,283.0469 Q120.5313,281.7188 121.1406,280.5781 Q121.7656,279.4219 122.8594,278.8125 Q123.9531,278.1875 125.1875,278.1875 Q125.9219,278.1875 126.5625,278.3594 Q127.2188,278.5156 127.7656,278.875 Z " fill="#000000"/><text fill="#000000" font-family="sans-serif" font-size="14" lengthAdjust="spacing" textLength="109" x="139" y="288.7969">AppModelModule</text><line style="stroke:#181818;stroke-width:0.5;" x1="111" x2="250" y1="299" y2="299"/><line style="stroke:#181818;stroke-width:0.5;" x1="111" x2="250" y1="307" y2="307"/></g><!--class Component (Model)--><g id="elem_Component (Model)"><rect codeLine="22" fill="#F1F1F1" height="60.582" id="Component (Model)" rx="2.5" ry="2.5" style="stroke:#181818;stroke-width:0.5;" width="158" x="225.5" y="146"/><ellipse cx="240.5" cy="168.291" fill="#B4A7E5" rx="11" ry="11" style="stroke:#181818;stroke-width:1.0;"/><path d="M241.4531,164.9316 L241.4531,171.5879 L243.1719,171.5879 Q243.7813,171.5879 244.0469,171.8223 Q244.3125,172.0566 244.3125,172.4473 Q244.3125,172.8223 244.0469,173.0566 Q243.7813,173.291 243.1719,173.291 L238.0313,173.291 Q237.4219,173.291 237.1563,173.0566 Q236.8906,172.8223 236.8906,172.4316 Q236.8906,172.0566 237.1563,171.8223 Q237.4219,171.5879 238.0313,171.5879 L239.75,171.5879 L239.75,164.9316 L238.0313,164.9316 Q237.4219,164.9316 237.1563,164.6973 Q236.8906,164.4629 236.8906,164.0723 Q236.8906,163.6973 237.1563,163.4629 Q237.4219,163.2285 238.0313,163.2285 L243.1719,163.2285 Q243.7813,163.2285 244.0469,163.4629 Q244.3125,163.6973 244.3125,164.0723 Q244.3125,164.4629 244.0469,164.6973 Q243.7813,164.9316 243.1719,164.9316 L241.4531,164.9316 Z " fill="#000000"/><text fill="#000000" font-family="sans-serif" font-size="12" font-style="italic" lengthAdjust="spacing" textLength="34" x="300.5" y="163.9492">&#171;trait&#187;</text><text fill="#000000" font-family="sans-serif" font-size="14" font-style="italic" lengthAdjust="spacing" textLength="126" x="254.5" y="182.0684">Component (Model)</text><line style="stroke:#181818;stroke-width:0.5;" x1="226.5" x2="382.5" y1="190.582" y2="190.582"/><line style="stroke:#181818;stroke-width:0.5;" x1="226.5" x2="382.5" y1="198.582" y2="198.582"/></g><!--class ViewModule--><g id="elem_ViewModule"><rect codeLine="33" fill="#F1F1F1" height="60.582" id="ViewModule" rx="2.5" ry="2.5" style="stroke:#181818;stroke-width:0.5;" width="108" x="489.5" y="146"/><ellipse cx="504.5" cy="168.291" fill="#B4A7E5" rx="11" ry="11" style="stroke:#181818;stroke-width:1.0;"/><path d="M505.4531,164.9316 L505.4531,171.5879 L507.1719,171.5879 Q507.7813,171.5879 508.0469,171.8223 Q508.3125,172.0566 508.3125,172.4473 Q508.3125,172.8223 508.0469,173.0566 Q507.7813,173.291 507.1719,173.291 L502.0313,173.291 Q501.4219,173.291 501.1563,173.0566 Q500.8906,172.8223 500.8906,172.4316 Q500.8906,172.0566 501.1563,171.8223 Q501.4219,171.5879 502.0313,171.5879 L503.75,171.5879 L503.75,164.9316 L502.0313,164.9316 Q501.4219,164.9316 501.1563,164.6973 Q500.8906,164.4629 500.8906,164.0723 Q500.8906,163.6973 501.1563,163.4629 Q501.4219,163.2285 502.0313,163.2285 L507.1719,163.2285 Q507.7813,163.2285 508.0469,163.4629 Q508.3125,163.6973 508.3125,164.0723 Q508.3125,164.4629 508.0469,164.6973 Q507.7813,164.9316 507.1719,164.9316 L505.4531,164.9316 Z " fill="#000000"/><text fill="#000000" font-family="sans-serif" font-size="12" font-style="italic" lengthAdjust="spacing" textLength="34" x="539.5" y="163.9492">&#171;trait&#187;</text><text fill="#000000" font-family="sans-serif" font-size="14" font-style="italic" lengthAdjust="spacing" textLength="76" x="518.5" y="182.0684">ViewModule</text><line style="stroke:#181818;stroke-width:0.5;" x1="490.5" x2="596.5" y1="190.582" y2="190.582"/><line style="stroke:#181818;stroke-width:0.5;" x1="490.5" x2="596.5" y1="198.582" y2="198.582"/></g><!--class Provider (View)--><g id="elem_Provider (View)"><rect codeLine="35" fill="#F1F1F1" height="79.2031" id="Provider (View)" rx="2.5" ry="2.5" style="stroke:#181818;stroke-width:0.5;" width="127" x="426" y="7"/><ellipse cx="441" cy="29.291" fill="#B4A7E5" rx="11" ry="11" style="stroke:#181818;stroke-width:1.0;"/><path d="M441.9531,25.9316 L441.9531,32.5879 L443.6719,32.5879 Q444.2813,32.5879 444.5469,32.8223 Q444.8125,33.0566 444.8125,33.4473 Q444.8125,33.8223 444.5469,34.0566 Q444.2813,34.291 443.6719,34.291 L438.5313,34.291 Q437.9219,34.291 437.6563,34.0566 Q437.3906,33.8223 437.3906,33.4316 Q437.3906,33.0566 437.6563,32.8223 Q437.9219,32.5879 438.5313,32.5879 L440.25,32.5879 L440.25,25.9316 L438.5313,25.9316 Q437.9219,25.9316 437.6563,25.6973 Q437.3906,25.4629 437.3906,25.0723 Q437.3906,24.6973 437.6563,24.4629 Q437.9219,24.2285 438.5313,24.2285 L443.6719,24.2285 Q444.2813,24.2285 444.5469,24.4629 Q444.8125,24.6973 444.8125,25.0723 Q444.8125,25.4629 444.5469,25.6973 Q444.2813,25.9316 443.6719,25.9316 L441.9531,25.9316 Z " fill="#000000"/><text fill="#000000" font-family="sans-serif" font-size="12" font-style="italic" lengthAdjust="spacing" textLength="34" x="485.5" y="24.9492">&#171;trait&#187;</text><text fill="#000000" font-family="sans-serif" font-size="14" font-style="italic" lengthAdjust="spacing" textLength="95" x="455" y="43.0684">Provider (View)</text><line style="stroke:#181818;stroke-width:0.5;" x1="427" x2="552" y1="51.582" y2="51.582"/><text fill="#000000" font-family="sans-serif" font-size="14" lengthAdjust="spacing" textLength="96" x="432" y="70.6895">view: ViewType</text><line style="stroke:#181818;stroke-width:0.5;" x1="427" x2="552" y1="78.2031" y2="78.2031"/></g><!--class AppViewModule--><g id="elem_AppViewModule"><rect codeLine="41" fill="#F1F1F1" height="48" id="AppViewModule" rx="2.5" ry="2.5" style="stroke:#181818;stroke-width:0.5;" width="132" x="505.5" y="267"/><ellipse cx="520.5" cy="283" fill="#ADD1B2" rx="11" ry="11" style="stroke:#181818;stroke-width:1.0;"/><path d="M523.2656,278.875 Q523.4219,278.6563 523.6094,278.5469 Q523.7969,278.4375 524.0156,278.4375 Q524.3906,278.4375 524.625,278.7031 Q524.8594,278.9531 524.8594,279.5625 L524.8594,281.0156 Q524.8594,281.625 524.625,281.8906 Q524.3906,282.1563 524.0156,282.1563 Q523.6719,282.1563 523.4688,281.9531 Q523.2656,281.7656 523.1563,281.25 Q523.1094,280.8906 522.9219,280.7031 Q522.5938,280.3281 521.9844,280.1094 Q521.375,279.8906 520.75,279.8906 Q519.9844,279.8906 519.3438,280.2188 Q518.7188,280.5469 518.2188,281.2969 Q517.7344,282.0469 517.7344,283.0781 L517.7344,284.1719 Q517.7344,285.4063 518.625,286.2344 Q519.5156,287.0469 521.1094,287.0469 Q522.0469,287.0469 522.7031,286.7969 Q523.0938,286.6406 523.5156,286.2031 Q523.7813,285.9375 523.9219,285.8594 Q524.0781,285.7813 524.2813,285.7813 Q524.6094,285.7813 524.8594,286.0469 Q525.125,286.2969 525.125,286.6406 Q525.125,286.9844 524.7813,287.3906 Q524.2813,287.9688 523.4844,288.2969 Q522.4063,288.75 521.1094,288.75 Q519.5938,288.75 518.3906,288.125 Q517.4063,287.625 516.7188,286.5625 Q516.0313,285.4844 516.0313,284.2031 L516.0313,283.0469 Q516.0313,281.7188 516.6406,280.5781 Q517.2656,279.4219 518.3594,278.8125 Q519.4531,278.1875 520.6875,278.1875 Q521.4219,278.1875 522.0625,278.3594 Q522.7188,278.5156 523.2656,278.875 Z " fill="#000000"/><text fill="#000000" font-family="sans-serif" font-size="14" lengthAdjust="spacing" textLength="100" x="534.5" y="288.7969">AppViewModule</text><line style="stroke:#181818;stroke-width:0.5;" x1="506.5" x2="636.5" y1="299" y2="299"/><line style="stroke:#181818;stroke-width:0.5;" x1="506.5" x2="636.5" y1="307" y2="307"/></g><!--class Component (View)--><g id="elem_Component (View)"><rect codeLine="44" fill="#F1F1F1" height="60.582" id="Component (View)" rx="2.5" ry="2.5" style="stroke:#181818;stroke-width:0.5;" width="148" x="632.5" y="146"/><ellipse cx="647.5" cy="168.291" fill="#B4A7E5" rx="11" ry="11" style="stroke:#181818;stroke-width:1.0;"/><path d="M648.4531,164.9316 L648.4531,171.5879 L650.1719,171.5879 Q650.7813,171.5879 651.0469,171.8223 Q651.3125,172.0566 651.3125,172.4473 Q651.3125,172.8223 651.0469,173.0566 Q650.7813,173.291 650.1719,173.291 L645.0313,173.291 Q644.4219,173.291 644.1563,173.0566 Q643.8906,172.8223 643.8906,172.4316 Q643.8906,172.0566 644.1563,171.8223 Q644.4219,171.5879 645.0313,171.5879 L646.75,171.5879 L646.75,164.9316 L645.0313,164.9316 Q644.4219,164.9316 644.1563,164.6973 Q643.8906,164.4629 643.8906,164.0723 Q643.8906,163.6973 644.1563,163.4629 Q644.4219,163.2285 645.0313,163.2285 L650.1719,163.2285 Q650.7813,163.2285 651.0469,163.4629 Q651.3125,163.6973 651.3125,164.0723 Q651.3125,164.4629 651.0469,164.6973 Q650.7813,164.9316 650.1719,164.9316 L648.4531,164.9316 Z " fill="#000000"/><text fill="#000000" font-family="sans-serif" font-size="12" font-style="italic" lengthAdjust="spacing" textLength="34" x="702.5" y="163.9492">&#171;trait&#187;</text><text fill="#000000" font-family="sans-serif" font-size="14" font-style="italic" lengthAdjust="spacing" textLength="116" x="661.5" y="182.0684">Component (View)</text><line style="stroke:#181818;stroke-width:0.5;" x1="633.5" x2="779.5" y1="190.582" y2="190.582"/><line style="stroke:#181818;stroke-width:0.5;" x1="633.5" x2="779.5" y1="198.582" y2="198.582"/></g><!--class ControllerModule--><g id="elem_ControllerModule"><rect codeLine="55" fill="#F1F1F1" height="60.582" id="ControllerModule" rx="2.5" ry="2.5" style="stroke:#181818;stroke-width:0.5;" width="141" x="887" y="146"/><ellipse cx="902" cy="168.291" fill="#B4A7E5" rx="11" ry="11" style="stroke:#181818;stroke-width:1.0;"/><path d="M902.9531,164.9316 L902.9531,171.5879 L904.6719,171.5879 Q905.2813,171.5879 905.5469,171.8223 Q905.8125,172.0566 905.8125,172.4473 Q905.8125,172.8223 905.5469,173.0566 Q905.2813,173.291 904.6719,173.291 L899.5313,173.291 Q898.9219,173.291 898.6563,173.0566 Q898.3906,172.8223 898.3906,172.4316 Q898.3906,172.0566 898.6563,171.8223 Q898.9219,171.5879 899.5313,171.5879 L901.25,171.5879 L901.25,164.9316 L899.5313,164.9316 Q898.9219,164.9316 898.6563,164.6973 Q898.3906,164.4629 898.3906,164.0723 Q898.3906,163.6973 898.6563,163.4629 Q898.9219,163.2285 899.5313,163.2285 L904.6719,163.2285 Q905.2813,163.2285 905.5469,163.4629 Q905.8125,163.6973 905.8125,164.0723 Q905.8125,164.4629 905.5469,164.6973 Q905.2813,164.9316 904.6719,164.9316 L902.9531,164.9316 Z " fill="#000000"/><text fill="#000000" font-family="sans-serif" font-size="12" font-style="italic" lengthAdjust="spacing" textLength="34" x="953.5" y="163.9492">&#171;trait&#187;</text><text fill="#000000" font-family="sans-serif" font-size="14" font-style="italic" lengthAdjust="spacing" textLength="109" x="916" y="182.0684">ControllerModule</text><line style="stroke:#181818;stroke-width:0.5;" x1="888" x2="1027" y1="190.582" y2="190.582"/><line style="stroke:#181818;stroke-width:0.5;" x1="888" x2="1027" y1="198.582" y2="198.582"/></g><!--class Provider (Controller)--><g id="elem_Provider (Controller)"><rect codeLine="57" fill="#F1F1F1" height="79.2031" id="Provider (Controller)" rx="2.5" ry="2.5" style="stroke:#181818;stroke-width:0.5;" width="173" x="809" y="7"/><ellipse cx="829.85" cy="29.291" fill="#B4A7E5" rx="11" ry="11" style="stroke:#181818;stroke-width:1.0;"/><path d="M830.8031,25.9316 L830.8031,32.5879 L832.5219,32.5879 Q833.1313,32.5879 833.3969,32.8223 Q833.6625,33.0566 833.6625,33.4473 Q833.6625,33.8223 833.3969,34.0566 Q833.1313,34.291 832.5219,34.291 L827.3813,34.291 Q826.7719,34.291 826.5063,34.0566 Q826.2406,33.8223 826.2406,33.4316 Q826.2406,33.0566 826.5063,32.8223 Q826.7719,32.5879 827.3813,32.5879 L829.1,32.5879 L829.1,25.9316 L827.3813,25.9316 Q826.7719,25.9316 826.5063,25.6973 Q826.2406,25.4629 826.2406,25.0723 Q826.2406,24.6973 826.5063,24.4629 Q826.7719,24.2285 827.3813,24.2285 L832.5219,24.2285 Q833.1313,24.2285 833.3969,24.4629 Q833.6625,24.6973 833.6625,25.0723 Q833.6625,25.4629 833.3969,25.6973 Q833.1313,25.9316 832.5219,25.9316 L830.8031,25.9316 Z " fill="#000000"/><text fill="#000000" font-family="sans-serif" font-size="12" font-style="italic" lengthAdjust="spacing" textLength="34" x="892.15" y="24.9492">&#171;trait&#187;</text><text fill="#000000" font-family="sans-serif" font-size="14" font-style="italic" lengthAdjust="spacing" textLength="128" x="845.15" y="43.0684">Provider (Controller)</text><line style="stroke:#181818;stroke-width:0.5;" x1="810" x2="981" y1="51.582" y2="51.582"/><text fill="#000000" font-family="sans-serif" font-size="14" lengthAdjust="spacing" textLength="161" x="815" y="70.6895">controller: ControllerType</text><line style="stroke:#181818;stroke-width:0.5;" x1="810" x2="981" y1="78.2031" y2="78.2031"/></g><!--class AppControllerModule--><g id="elem_AppControllerModule"><rect codeLine="63" fill="#F1F1F1" height="48" id="AppControllerModule" rx="2.5" ry="2.5" style="stroke:#181818;stroke-width:0.5;" width="165" x="887" y="267"/><ellipse cx="902" cy="283" fill="#ADD1B2" rx="11" ry="11" style="stroke:#181818;stroke-width:1.0;"/><path d="M904.7656,278.875 Q904.9219,278.6563 905.1094,278.5469 Q905.2969,278.4375 905.5156,278.4375 Q905.8906,278.4375 906.125,278.7031 Q906.3594,278.9531 906.3594,279.5625 L906.3594,281.0156 Q906.3594,281.625 906.125,281.8906 Q905.8906,282.1563 905.5156,282.1563 Q905.1719,282.1563 904.9688,281.9531 Q904.7656,281.7656 904.6563,281.25 Q904.6094,280.8906 904.4219,280.7031 Q904.0938,280.3281 903.4844,280.1094 Q902.875,279.8906 902.25,279.8906 Q901.4844,279.8906 900.8438,280.2188 Q900.2188,280.5469 899.7188,281.2969 Q899.2344,282.0469 899.2344,283.0781 L899.2344,284.1719 Q899.2344,285.4063 900.125,286.2344 Q901.0156,287.0469 902.6094,287.0469 Q903.5469,287.0469 904.2031,286.7969 Q904.5938,286.6406 905.0156,286.2031 Q905.2813,285.9375 905.4219,285.8594 Q905.5781,285.7813 905.7813,285.7813 Q906.1094,285.7813 906.3594,286.0469 Q906.625,286.2969 906.625,286.6406 Q906.625,286.9844 906.2813,287.3906 Q905.7813,287.9688 904.9844,288.2969 Q903.9063,288.75 902.6094,288.75 Q901.0938,288.75 899.8906,288.125 Q898.9063,287.625 898.2188,286.5625 Q897.5313,285.4844 897.5313,284.2031 L897.5313,283.0469 Q897.5313,281.7188 898.1406,280.5781 Q898.7656,279.4219 899.8594,278.8125 Q900.9531,278.1875 902.1875,278.1875 Q902.9219,278.1875 903.5625,278.3594 Q904.2188,278.5156 904.7656,278.875 Z " fill="#000000"/><text fill="#000000" font-family="sans-serif" font-size="14" lengthAdjust="spacing" textLength="133" x="916" y="288.7969">AppControllerModule</text><line style="stroke:#181818;stroke-width:0.5;" x1="888" x2="1051" y1="299" y2="299"/><line style="stroke:#181818;stroke-width:0.5;" x1="888" x2="1051" y1="307" y2="307"/></g><!--class Component (Controller)--><g id="elem_Component (Controller)"><rect codeLine="66" fill="#F1F1F1" height="60.582" id="Component (Controller)" rx="2.5" ry="2.5" style="stroke:#181818;stroke-width:0.5;" width="181" x="1063" y="146"/><ellipse cx="1078" cy="168.291" fill="#B4A7E5" rx="11" ry="11" style="stroke:#181818;stroke-width:1.0;"/><path d="M1078.9531,164.9316 L1078.9531,171.5879 L1080.6719,171.5879 Q1081.2813,171.5879 1081.5469,171.8223 Q1081.8125,172.0566 1081.8125,172.4473 Q1081.8125,172.8223 1081.5469,173.0566 Q1081.2813,173.291 1080.6719,173.291 L1075.5313,173.291 Q1074.9219,173.291 1074.6563,173.0566 Q1074.3906,172.8223 1074.3906,172.4316 Q1074.3906,172.0566 1074.6563,171.8223 Q1074.9219,171.5879 1075.5313,171.5879 L1077.25,171.5879 L1077.25,164.9316 L1075.5313,164.9316 Q1074.9219,164.9316 1074.6563,164.6973 Q1074.3906,164.4629 1074.3906,164.0723 Q1074.3906,163.6973 1074.6563,163.4629 Q1074.9219,163.2285 1075.5313,163.2285 L1080.6719,163.2285 Q1081.2813,163.2285 1081.5469,163.4629 Q1081.8125,163.6973 1081.8125,164.0723 Q1081.8125,164.4629 1081.5469,164.6973 Q1081.2813,164.9316 1080.6719,164.9316 L1078.9531,164.9316 Z " fill="#000000"/><text fill="#000000" font-family="sans-serif" font-size="12" font-style="italic" lengthAdjust="spacing" textLength="34" x="1149.5" y="163.9492">&#171;trait&#187;</text><text fill="#000000" font-family="sans-serif" font-size="14" font-style="italic" lengthAdjust="spacing" textLength="149" x="1092" y="182.0684">Component (Controller)</text><line style="stroke:#181818;stroke-width:0.5;" x1="1064" x2="1243" y1="190.582" y2="190.582"/><line style="stroke:#181818;stroke-width:0.5;" x1="1064" x2="1243" y1="198.582" y2="198.582"/></g><!--link Interface (Model) to AppMVC--><g id="link_Interface (Model)_AppMVC"><path codeLine="6" d="M313.08,430.63 C378.22,452.91 455.878,479.4667 510.718,498.2167 " fill="none" id="Interface (Model)-to-AppMVC" style="stroke:#181818;stroke-width:1.0;"/><polygon fill="none" points="527.75,504.04,512.6591,492.5394,508.7769,503.894,527.75,504.04" style="stroke:#181818;stroke-width:1.0;"/></g><!--link Interface (View) to AppMVC--><g id="link_Interface (View)_AppMVC"><path codeLine="7" d="M571.5,436.06 C571.5,454.68 571.5,460.38 571.5,477.67 " fill="none" id="Interface (View)-to-AppMVC" style="stroke:#181818;stroke-width:1.0;"/><polygon fill="none" points="571.5,495.67,577.5,477.67,565.5,477.67,571.5,495.67" style="stroke:#181818;stroke-width:1.0;"/></g><!--link Interface (Controller) to AppMVC--><g id="link_Interface (Controller)_AppMVC"><path codeLine="8" d="M819.08,434.6 C754.36,456.66 683.8474,480.7025 632.0674,498.3525 " fill="none" id="Interface (Controller)-to-AppMVC" style="stroke:#181818;stroke-width:1.0;"/><polygon fill="none" points="615.03,504.16,634.0032,504.0317,630.1316,492.6734,615.03,504.16" style="stroke:#181818;stroke-width:1.0;"/></g><!--link Provider (Model) to ModelModule--><g id="link_Provider (Model)_ModelModule"><path codeLine="17" d="M92.45,86.25 C100.82,105.38 105.9485,117.1068 113.7085,134.8368 " fill="none" id="Provider (Model)-to-ModelModule" style="stroke:#181818;stroke-width:1.0;"/><polygon fill="#181818" points="118.52,145.83,119.7787,138.7296,113.7085,134.8368,112.4499,141.9372,118.52,145.83" style="stroke:#181818;stroke-width:1.0;"/></g><!--reverse link ModelModule to AppModelModule--><g id="link_ModelModule_AppModelModule"><path d="M151.5578,223.5626 C159.6678,242.1826 162.81,249.38 170.34,266.67 " fill="none" id="ModelModule-backto-AppModelModule" style="stroke:#181818;stroke-width:1.0;"/><polygon fill="none" points="144.37,207.06,146.0569,225.9585,157.0586,221.1667,144.37,207.06" style="stroke:#181818;stroke-width:1.0;"/></g><!--link Component (Model) to AppModelModule--><g id="link_Component (Model)_AppModelModule"><path codeLine="24" d="M271.92,207.06 C251.4,225.68 234.1679,241.3174 215.1079,258.6074 " fill="none" id="Component (Model)-to-AppModelModule" style="stroke:#181818;stroke-width:1.0;"/><polygon fill="#181818" points="206.22,266.67,213.3515,265.6014,215.1079,258.6074,207.9764,259.6761,206.22,266.67" style="stroke:#181818;stroke-width:1.0;"/></g><!--link Provider (Model) to Interface (Model)--><g id="link_Provider (Model)_Interface (Model)"><path codeLine="27" d="M65.32,86.03 C61.06,104.1 56.61,126 54.5,146 C46.43,222.56 43.76,255.41 92.5,315 C113.43,340.59 127.7735,352.2799 155.6635,366.8399 " fill="none" id="Provider (Model)-to-Interface (Model)" style="stroke:#181818;stroke-width:1.0;"/><polygon fill="none" points="171.62,375.17,158.4402,361.5211,152.8868,372.1587,171.62,375.17" style="stroke:#181818;stroke-width:1.0;"/></g><!--link Component (Model) to Interface (Model)--><g id="link_Component (Model)_Interface (Model)"><path codeLine="28" d="M297,207.07 C289.87,234.95 278.75,277.89 268.5,315 C262.99,334.96 261.5765,340.0736 256.4565,357.4536 " fill="none" id="Component (Model)-to-Interface (Model)" style="stroke:#181818;stroke-width:1.0;"/><polygon fill="none" points="251.37,374.72,262.212,359.1491,250.7011,355.7581,251.37,374.72" style="stroke:#181818;stroke-width:1.0;"/></g><!--reverse link AppModelModule to Interface (Model)--><g id="link_AppModelModule_Interface (Model)"><path codeLine="30" d="M198.9893,325.5511 C208.4793,342.7811 215.75,355.97 226.05,374.65 " fill="none" id="AppModelModule-backto-Interface (Model)" style="stroke:#181818;stroke-width:1.0;"/><polygon fill="#181818" points="193.2,315.04,192.591,322.2253,198.9893,325.5511,199.5984,318.3658,193.2,315.04" style="stroke:#181818;stroke-width:1.0;"/></g><!--link Provider (View) to ViewModule--><g id="link_Provider (View)_ViewModule"><path codeLine="39" d="M505.85,86.25 C513.92,105.38 518.8355,117.0437 526.3155,134.7737 " fill="none" id="Provider (View)-to-ViewModule" style="stroke:#181818;stroke-width:1.0;"/><polygon fill="#181818" points="530.98,145.83,532.3332,138.747,526.3155,134.7737,524.9623,141.8567,530.98,145.83" style="stroke:#181818;stroke-width:1.0;"/></g><!--reverse link ViewModule to AppViewModule--><g id="link_ViewModule_AppViewModule"><path d="M555.2036,224.5281 C559.8336,243.1481 561.39,249.38 565.69,266.67 " fill="none" id="ViewModule-backto-AppViewModule" style="stroke:#181818;stroke-width:1.0;"/><polygon fill="none" points="550.86,207.06,549.3809,225.9759,561.0263,223.0802,550.86,207.06" style="stroke:#181818;stroke-width:1.0;"/></g><!--link Component (View) to AppViewModule--><g id="link_Component (View)_AppViewModule"><path codeLine="46" d="M671.03,207.06 C648.69,225.68 629.469,241.6982 608.719,258.9882 " fill="none" id="Component (View)-to-AppViewModule" style="stroke:#181818;stroke-width:1.0;"/><polygon fill="#181818" points="599.5,266.67,606.6701,265.9021,608.719,258.9882,601.5489,259.7561,599.5,266.67" style="stroke:#181818;stroke-width:1.0;"/></g><!--link Provider (View) to Interface (View)--><g id="link_Provider (View)_Interface (View)"><path codeLine="49" d="M479.03,86.14 C466.54,140.32 451.51,240.58 487.5,315 C498.54,337.83 504.2838,346.5174 521.3738,362.3974 " fill="none" id="Provider (View)-to-Interface (View)" style="stroke:#181818;stroke-width:1.0;"/><polygon fill="none" points="534.56,374.65,525.458,358.0021,517.2897,366.7928,534.56,374.65" style="stroke:#181818;stroke-width:1.0;"/></g><!--link Component (View) to Interface (View)--><g id="link_Component (View)_Interface (View)"><path codeLine="50" d="M698.89,207.18 C690.66,236.1 675.8,280.61 654.5,315 C640.88,336.98 634.2583,345.7338 617.5783,362.0738 " fill="none" id="Component (View)-to-Interface (View)" style="stroke:#181818;stroke-width:1.0;"/><polygon fill="none" points="604.72,374.67,621.777,366.3599,613.3796,357.7877,604.72,374.67" style="stroke:#181818;stroke-width:1.0;"/></g><!--reverse link AppViewModule to Interface (View)--><g id="link_AppViewModule_Interface (View)"><path codeLine="52" d="M571.5,327.04 C571.5,344.27 571.5,355.97 571.5,374.65 " fill="none" id="AppViewModule-backto-Interface (View)" style="stroke:#181818;stroke-width:1.0;"/><polygon fill="#181818" points="571.5,315.04,567.5,321.04,571.5,327.04,575.5,321.04,571.5,315.04" style="stroke:#181818;stroke-width:1.0;"/></g><!--link Provider (Controller) to ControllerModule--><g id="link_Provider (Controller)_ControllerModule"><path codeLine="61" d="M914.27,86.25 C923.54,105.38 929.3079,117.3007 937.8979,135.0307 " fill="none" id="Provider (Controller)-to-ControllerModule" style="stroke:#181818;stroke-width:1.0;"/><polygon fill="#181818" points="943.13,145.83,944.1137,138.6863,937.8979,135.0307,936.9142,142.1744,943.13,145.83" style="stroke:#181818;stroke-width:1.0;"/></g><!--reverse link ControllerModule to AppControllerModule--><g id="link_ControllerModule_AppControllerModule"><path d="M962.5628,224.9581 C964.5528,243.5781 965.17,249.38 967.01,266.67 " fill="none" id="ControllerModule-backto-AppControllerModule" style="stroke:#181818;stroke-width:1.0;"/><polygon fill="none" points="960.65,207.06,956.5968,225.5957,968.5289,224.3205,960.65,207.06" style="stroke:#181818;stroke-width:1.0;"/></g><!--link Component (Controller) to AppControllerModule--><g id="link_Component (Controller)_AppControllerModule"><path codeLine="68" d="M1105.16,207.06 C1074.6,225.74 1045.9079,243.2801 1017.5979,260.5901 " fill="none" id="Component (Controller)-to-AppControllerModule" style="stroke:#181818;stroke-width:1.0;"/><polygon fill="#181818" points="1007.36,266.85,1014.5656,267.1327,1017.5979,260.5901,1010.3923,260.3074,1007.36,266.85" style="stroke:#181818;stroke-width:1.0;"/></g><!--link Provider (Controller) to Interface (Controller)--><g id="link_Provider (Controller)_Interface (Controller)"><path codeLine="71" d="M882.77,86.34 C877.53,104.29 872.09,126.01 869.5,146 C859.83,220.49 856.67,240.99 869.5,315 C873.08,335.65 874.1177,341.1994 881.1777,358.3194 " fill="none" id="Provider (Controller)-to-Interface (Controller)" style="stroke:#181818;stroke-width:1.0;"/><polygon fill="none" points="888.04,374.96,886.7246,356.032,875.6308,360.6069,888.04,374.96" style="stroke:#181818;stroke-width:1.0;"/></g><!--link Component (Controller) to Interface (Controller)--><g id="link_Component (Controller)_Interface (Controller)"><path codeLine="72" d="M1141.05,207.21 C1127.2,237.4 1102.37,284.01 1069.5,315 C1042.93,340.05 1024.2644,352.4384 993.1344,367.1984 " fill="none" id="Component (Controller)-to-Interface (Controller)" style="stroke:#181818;stroke-width:1.0;"/><polygon fill="none" points="976.87,374.91,995.7049,372.6199,990.5639,361.7769,976.87,374.91" style="stroke:#181818;stroke-width:1.0;"/></g><!--reverse link AppControllerModule to Interface (Controller)--><g id="link_AppControllerModule_Interface (Controller)"><path codeLine="74" d="M949.3702,325.3083 C938.9502,342.5383 930.83,355.97 919.54,374.65 " fill="none" id="AppControllerModule-backto-Interface (Controller)" style="stroke:#181818;stroke-width:1.0;"/><polygon fill="#181818" points="955.58,315.04,949.0523,318.1042,949.3702,325.3083,955.8978,322.2441,955.58,315.04" style="stroke:#181818;stroke-width:1.0;"/></g><!--SRC=[ZPJ1QeGm48RlynJ1YsqWBo0Y54yzBFHGzYwQWk0QqUosPRVltkYkEcCcifTTc1d__q- -96LJ38Duwxh3COVu_Y_Icr8YUc-jxh-AKekNWwbqyng51uwr_jxhvwQrlMaQtRifHbaeTSlc6Bvmi8rroH34Of8MCTJB-5HnF-T6YpIrVL7RB0Cq47tqvb9Nkb-3BNFY2aASncfo5_hyxJJy0J0VAIMn6K2vR3EAe7-iRgk1nBgEYYXGRawTQNLhcKJEcccFtjI8239xlmgoIt6Rofq5tZim39kboy01SzX6ueJQM7WIskEqK6ONLqmc5OROShuaya6yaFcC2vLsQ6sZK5Z8bfY4K7bgt18sU_-uawmjFmfqmPA_v8xHUkq8gRNy92zoVIcrScabI9SXk7a2f9S2qVG2paoznWvPFZJbwuLYp4Ei0_hX9MzWqhSs76hlC-0sI-uzwly0]--></g></svg>